<?xml version="1.0" encoding="UTF-8"?>
<svg xmlns="http://www.w3.org/2000/svg" xmlns:xlink="http://www.w3.org/1999/xlink" width="639pt" height="339pt" viewBox="0 0 639 339">
<defs>
<g>
<g id="glyph-0-0">
<path d="M 5.039062 -1.269531 L 5.039062 0 L 0.246094 0 C 0.300781 -0.480469 0.457031 -0.933594 0.714844 -1.363281 C 0.972656 -1.792969 1.484375 -2.363281 2.25 -3.074219 C 2.867188 -3.648438 3.246094 -4.035156 3.382812 -4.238281 C 3.574219 -4.523438 3.667969 -4.800781 3.667969 -5.078125 C 3.667969 -5.382812 3.585938 -5.617188 3.421875 -5.777344 C 3.257812 -5.941406 3.03125 -6.023438 2.742188 -6.023438 C 2.457031 -6.023438 2.230469 -5.9375 2.0625 -5.765625 C 1.894531 -5.59375 1.796875 -5.308594 1.769531 -4.910156 L 0.410156 -5.046875 C 0.488281 -5.800781 0.742188 -6.339844 1.171875 -6.667969 C 1.601562 -6.992188 2.132812 -7.15625 2.777344 -7.15625 C 3.480469 -7.15625 4.03125 -6.96875 4.433594 -6.589844 C 4.835938 -6.210938 5.039062 -5.738281 5.039062 -5.171875 C 5.039062 -4.851562 4.980469 -4.546875 4.863281 -4.257812 C 4.75 -3.96875 4.566406 -3.664062 4.316406 -3.34375 C 4.152344 -3.132812 3.855469 -2.832031 3.421875 -2.4375 C 2.992188 -2.039062 2.71875 -1.777344 2.605469 -1.648438 C 2.488281 -1.519531 2.394531 -1.390625 2.324219 -1.269531 Z M 5.039062 -1.269531 "/>
</g>
<g id="glyph-0-1">
</g>
<g id="glyph-0-2">
<path d="M 0.441406 -1.832031 L 1.804688 -1.972656 C 1.84375 -1.667969 1.957031 -1.421875 2.148438 -1.242188 C 2.339844 -1.0625 2.5625 -0.972656 2.808594 -0.972656 C 3.097656 -0.972656 3.335938 -1.089844 3.535156 -1.320312 C 3.734375 -1.550781 3.832031 -1.902344 3.832031 -2.367188 C 3.832031 -2.804688 3.734375 -3.132812 3.539062 -3.351562 C 3.339844 -3.570312 3.085938 -3.679688 2.773438 -3.679688 C 2.378906 -3.679688 2.027344 -3.507812 1.714844 -3.160156 L 0.609375 -3.320312 L 1.308594 -7.03125 L 4.921875 -7.03125 L 4.921875 -5.753906 L 2.34375 -5.753906 L 2.128906 -4.542969 C 2.433594 -4.695312 2.746094 -4.769531 3.0625 -4.769531 C 3.667969 -4.769531 4.183594 -4.550781 4.605469 -4.109375 C 5.027344 -3.667969 5.238281 -3.097656 5.238281 -2.390625 C 5.238281 -1.804688 5.066406 -1.28125 4.726562 -0.820312 C 4.261719 -0.191406 3.621094 0.121094 2.796875 0.121094 C 2.136719 0.121094 1.601562 -0.0546875 1.1875 -0.410156 C 0.773438 -0.761719 0.523438 -1.238281 0.441406 -1.832031 Z M 0.441406 -1.832031 "/>
</g>
<g id="glyph-0-3">
<path d="M 3.101562 0 L 3.101562 -1.433594 L 0.183594 -1.433594 L 0.183594 -2.628906 L 3.277344 -7.15625 L 4.425781 -7.15625 L 4.425781 -2.636719 L 5.308594 -2.636719 L 5.308594 -1.433594 L 4.425781 -1.433594 L 4.425781 0 L 3.101562 0 M 3.101562 -2.636719 L 3.101562 -5.070312 L 1.464844 -2.636719 Z M 3.101562 -2.636719 "/>
</g>
<g id="glyph-0-4">
<path d="M 5.050781 -5.382812 L 3.730469 -5.238281 C 3.695312 -5.507812 3.613281 -5.710938 3.476562 -5.839844 C 3.339844 -5.96875 3.164062 -6.035156 2.945312 -6.035156 C 2.65625 -6.035156 2.414062 -5.90625 2.214844 -5.644531 C 2.015625 -5.386719 1.890625 -4.847656 1.839844 -4.027344 C 2.179688 -4.429688 2.601562 -4.628906 3.105469 -4.628906 C 3.675781 -4.628906 4.167969 -4.410156 4.574219 -3.976562 C 4.980469 -3.542969 5.183594 -2.980469 5.183594 -2.296875 C 5.183594 -1.566406 4.96875 -0.980469 4.542969 -0.539062 C 4.113281 -0.0976562 3.5625 0.121094 2.894531 0.121094 C 2.171875 0.121094 1.582031 -0.15625 1.117188 -0.71875 C 0.65625 -1.277344 0.421875 -2.191406 0.421875 -3.46875 C 0.421875 -4.773438 0.664062 -5.714844 1.148438 -6.292969 C 1.628906 -6.867188 2.257812 -7.15625 3.03125 -7.15625 C 3.570312 -7.15625 4.019531 -7.007812 4.375 -6.703125 C 4.730469 -6.398438 4.953125 -5.960938 5.050781 -5.382812 M 1.953125 -2.402344 C 1.953125 -1.957031 2.058594 -1.613281 2.261719 -1.375 C 2.464844 -1.132812 2.699219 -1.011719 2.960938 -1.011719 C 3.214844 -1.011719 3.425781 -1.109375 3.59375 -1.308594 C 3.761719 -1.503906 3.847656 -1.828125 3.847656 -2.28125 C 3.847656 -2.742188 3.753906 -3.082031 3.574219 -3.300781 C 3.390625 -3.515625 3.164062 -3.621094 2.894531 -3.621094 C 2.628906 -3.621094 2.410156 -3.519531 2.226562 -3.3125 C 2.046875 -3.109375 1.953125 -2.804688 1.953125 -2.402344 Z M 1.953125 -2.402344 "/>
</g>
<g id="glyph-0-5">
<path d="M 0.453125 -1.648438 L 1.773438 -1.792969 C 1.808594 -1.523438 1.890625 -1.324219 2.027344 -1.195312 C 2.164062 -1.066406 2.34375 -1 2.566406 -1 C 2.847656 -1 3.089844 -1.132812 3.285156 -1.390625 C 3.484375 -1.648438 3.609375 -2.1875 3.667969 -3.003906 C 3.324219 -2.605469 2.894531 -2.40625 2.378906 -2.40625 C 1.816406 -2.40625 1.332031 -2.625 0.925781 -3.054688 C 0.519531 -3.488281 0.316406 -4.050781 0.316406 -4.746094 C 0.316406 -5.46875 0.53125 -6.050781 0.960938 -6.492188 C 1.390625 -6.9375 1.9375 -7.15625 2.601562 -7.15625 C 3.324219 -7.15625 3.917969 -6.878906 4.382812 -6.320312 C 4.84375 -5.757812 5.078125 -4.839844 5.078125 -3.558594 C 5.078125 -2.257812 4.835938 -1.316406 4.351562 -0.738281 C 3.867188 -0.160156 3.238281 0.125 2.464844 0.125 C 1.90625 0.125 1.457031 -0.0234375 1.113281 -0.320312 C 0.769531 -0.613281 0.550781 -1.058594 0.453125 -1.648438 M 3.542969 -4.632812 C 3.542969 -5.074219 3.445312 -5.417969 3.242188 -5.660156 C 3.039062 -5.902344 2.804688 -6.023438 2.539062 -6.023438 C 2.285156 -6.023438 2.074219 -5.925781 1.910156 -5.726562 C 1.742188 -5.527344 1.65625 -5.199219 1.65625 -4.746094 C 1.65625 -4.285156 1.75 -3.949219 1.929688 -3.730469 C 2.113281 -3.515625 2.339844 -3.410156 2.609375 -3.410156 C 2.875 -3.410156 3.09375 -3.511719 3.273438 -3.71875 C 3.453125 -3.925781 3.542969 -4.230469 3.542969 -4.632812 Z M 3.542969 -4.632812 "/>
</g>
<g id="glyph-0-6">
<path d="M 3.917969 0 L 2.554688 0 L 2.554688 -5.148438 C 2.054688 -4.683594 1.464844 -4.335938 0.789062 -4.113281 L 0.789062 -5.355469 C 1.144531 -5.46875 1.53125 -5.691406 1.949219 -6.015625 C 2.367188 -6.34375 2.65625 -6.722656 2.808594 -7.15625 L 3.917969 -7.15625 Z M 3.917969 0 "/>
</g>
<g id="glyph-0-7">
<path d="M 1.59375 -3.847656 C 1.242188 -3.996094 0.984375 -4.199219 0.824219 -4.460938 C 0.664062 -4.722656 0.582031 -5.007812 0.582031 -5.320312 C 0.582031 -5.851562 0.769531 -6.289062 1.140625 -6.636719 C 1.511719 -6.984375 2.039062 -7.15625 2.722656 -7.15625 C 3.402344 -7.15625 3.925781 -6.984375 4.300781 -6.636719 C 4.675781 -6.289062 4.863281 -5.851562 4.863281 -5.320312 C 4.863281 -4.988281 4.777344 -4.695312 4.605469 -4.4375 C 4.433594 -4.179688 4.191406 -3.980469 3.878906 -3.847656 C 4.277344 -3.6875 4.578125 -3.457031 4.78125 -3.152344 C 4.988281 -2.847656 5.089844 -2.496094 5.089844 -2.097656 C 5.089844 -1.4375 4.882812 -0.902344 4.460938 -0.492188 C 4.042969 -0.078125 3.484375 0.125 2.785156 0.125 C 2.136719 0.125 1.597656 -0.0429688 1.167969 -0.382812 C 0.65625 -0.785156 0.402344 -1.335938 0.402344 -2.039062 C 0.402344 -2.421875 0.5 -2.777344 0.691406 -3.101562 C 0.882812 -3.421875 1.183594 -3.671875 1.59375 -3.847656 M 1.875 -5.222656 C 1.875 -4.949219 1.953125 -4.738281 2.109375 -4.585938 C 2.261719 -4.433594 2.46875 -4.355469 2.722656 -4.355469 C 2.980469 -4.355469 3.191406 -4.433594 3.34375 -4.585938 C 3.5 -4.742188 3.578125 -4.953125 3.578125 -5.226562 C 3.578125 -5.484375 3.5 -5.6875 3.347656 -5.84375 C 3.195312 -5.996094 2.992188 -6.074219 2.738281 -6.074219 C 2.476562 -6.074219 2.265625 -5.996094 2.109375 -5.839844 C 1.953125 -5.683594 1.875 -5.476562 1.875 -5.222656 M 1.75 -2.167969 C 1.75 -1.792969 1.847656 -1.5 2.039062 -1.289062 C 2.234375 -1.078125 2.472656 -0.972656 2.761719 -0.972656 C 3.042969 -0.972656 3.277344 -1.074219 3.460938 -1.277344 C 3.648438 -1.480469 3.738281 -1.773438 3.738281 -2.152344 C 3.738281 -2.488281 3.644531 -2.757812 3.457031 -2.957031 C 3.269531 -3.160156 3.03125 -3.261719 2.742188 -3.261719 C 2.410156 -3.261719 2.160156 -3.148438 1.996094 -2.917969 C 1.832031 -2.6875 1.75 -2.4375 1.75 -2.167969 Z M 1.75 -2.167969 "/>
</g>
<g id="glyph-0-8">
<path d="M 0.421875 -5.761719 L 0.421875 -7.03125 L 5.097656 -7.03125 L 5.097656 -6.039062 C 4.710938 -5.660156 4.316406 -5.117188 3.917969 -4.40625 C 3.519531 -3.695312 3.214844 -2.941406 3.007812 -2.140625 C 2.796875 -1.34375 2.695312 -0.628906 2.699219 0 L 1.382812 0 C 1.402344 -0.984375 1.605469 -1.992188 1.992188 -3.015625 C 2.375 -4.039062 2.886719 -4.953125 3.53125 -5.761719 Z M 0.421875 -5.761719 "/>
</g>
<g id="glyph-0-9">
<path d="M 0.375 -1.890625 L 1.695312 -2.050781 C 1.738281 -1.714844 1.851562 -1.457031 2.039062 -1.277344 C 2.222656 -1.101562 2.445312 -1.011719 2.707031 -1.011719 C 2.992188 -1.011719 3.226562 -1.117188 3.421875 -1.332031 C 3.613281 -1.546875 3.710938 -1.835938 3.710938 -2.199219 C 3.710938 -2.542969 3.617188 -2.8125 3.433594 -3.015625 C 3.25 -3.214844 3.023438 -3.316406 2.757812 -3.316406 C 2.582031 -3.316406 2.371094 -3.28125 2.128906 -3.214844 L 2.28125 -4.328125 C 2.648438 -4.316406 2.933594 -4.398438 3.125 -4.566406 C 3.320312 -4.738281 3.417969 -4.964844 3.417969 -5.246094 C 3.417969 -5.488281 3.347656 -5.679688 3.203125 -5.820312 C 3.0625 -5.964844 2.871094 -6.035156 2.636719 -6.035156 C 2.402344 -6.035156 2.203125 -5.953125 2.039062 -5.792969 C 1.871094 -5.628906 1.773438 -5.390625 1.734375 -5.082031 L 0.476562 -5.296875 C 0.5625 -5.726562 0.695312 -6.070312 0.871094 -6.328125 C 1.050781 -6.585938 1.296875 -6.789062 1.613281 -6.9375 C 1.929688 -7.082031 2.28125 -7.15625 2.675781 -7.15625 C 3.34375 -7.15625 3.882812 -6.945312 4.289062 -6.515625 C 4.621094 -6.164062 4.789062 -5.769531 4.789062 -5.328125 C 4.789062 -4.703125 4.449219 -4.203125 3.761719 -3.832031 C 4.171875 -3.746094 4.5 -3.546875 4.742188 -3.242188 C 4.988281 -2.9375 5.109375 -2.570312 5.109375 -2.140625 C 5.109375 -1.515625 4.882812 -0.980469 4.425781 -0.539062 C 3.96875 -0.0976562 3.398438 0.121094 2.71875 0.121094 C 2.074219 0.121094 1.539062 -0.0625 1.113281 -0.433594 C 0.6875 -0.804688 0.441406 -1.292969 0.375 -1.890625 Z M 0.375 -1.890625 "/>
</g>
<g id="glyph-0-10">
<path d="M 2.734375 -7.15625 C 3.421875 -7.15625 3.964844 -6.910156 4.351562 -6.417969 C 4.816406 -5.835938 5.046875 -4.867188 5.046875 -3.515625 C 5.046875 -2.167969 4.8125 -1.199219 4.347656 -0.609375 C 3.960938 -0.121094 3.421875 0.121094 2.734375 0.121094 C 2.039062 0.121094 1.480469 -0.144531 1.054688 -0.679688 C 0.628906 -1.210938 0.417969 -2.164062 0.417969 -3.53125 C 0.417969 -4.871094 0.652344 -5.839844 1.117188 -6.429688 C 1.503906 -6.914062 2.042969 -7.15625 2.734375 -7.15625 M 2.734375 -6.023438 C 2.566406 -6.023438 2.417969 -5.972656 2.289062 -5.867188 C 2.160156 -5.761719 2.058594 -5.574219 1.988281 -5.300781 C 1.894531 -4.945312 1.847656 -4.351562 1.847656 -3.515625 C 1.847656 -2.679688 1.890625 -2.105469 1.972656 -1.792969 C 2.058594 -1.480469 2.164062 -1.269531 2.292969 -1.167969 C 2.421875 -1.0625 2.566406 -1.011719 2.734375 -1.011719 C 2.898438 -1.011719 3.046875 -1.0625 3.175781 -1.167969 C 3.304688 -1.273438 3.40625 -1.464844 3.476562 -1.734375 C 3.570312 -2.085938 3.617188 -2.679688 3.617188 -3.515625 C 3.617188 -4.351562 3.574219 -4.925781 3.492188 -5.238281 C 3.40625 -5.550781 3.300781 -5.761719 3.171875 -5.867188 C 3.042969 -5.972656 2.898438 -6.023438 2.734375 -6.023438 Z M 2.734375 -6.023438 "/>
</g>
<g id="glyph-1-0">
<path d="M 0.367188 -3.105469 C 0.367188 -3.851562 0.441406 -4.449219 0.59375 -4.90625 C 0.75 -5.359375 0.976562 -5.710938 1.277344 -5.957031 C 1.582031 -6.203125 1.960938 -6.324219 2.417969 -6.324219 C 2.757812 -6.324219 3.054688 -6.257812 3.308594 -6.121094 C 3.5625 -5.984375 3.773438 -5.789062 3.941406 -5.53125 C 4.105469 -5.277344 4.238281 -4.964844 4.332031 -4.59375 C 4.425781 -4.226562 4.472656 -3.730469 4.472656 -3.105469 C 4.472656 -2.367188 4.398438 -1.769531 4.246094 -1.316406 C 4.09375 -0.863281 3.867188 -0.511719 3.5625 -0.265625 C 3.261719 -0.015625 2.878906 0.109375 2.417969 0.109375 C 1.8125 0.109375 1.335938 -0.109375 0.988281 -0.546875 C 0.574219 -1.070312 0.367188 -1.921875 0.367188 -3.105469 M 1.160156 -3.105469 C 1.160156 -2.074219 1.28125 -1.382812 1.523438 -1.042969 C 1.765625 -0.699219 2.0625 -0.527344 2.417969 -0.527344 C 2.773438 -0.527344 3.074219 -0.699219 3.316406 -1.042969 C 3.558594 -1.386719 3.679688 -2.074219 3.679688 -3.105469 C 3.679688 -4.144531 3.558594 -4.832031 3.316406 -5.171875 C 3.074219 -5.515625 2.773438 -5.683594 2.410156 -5.683594 C 2.054688 -5.683594 1.773438 -5.535156 1.558594 -5.234375 C 1.292969 -4.851562 1.160156 -4.140625 1.160156 -3.105469 Z M 1.160156 -3.105469 "/>
</g>
<g id="glyph-1-1">
<path d="M 3.277344 0 L 2.503906 0 L 2.503906 -4.929688 C 2.320312 -4.75 2.074219 -4.574219 1.773438 -4.394531 C 1.46875 -4.21875 1.199219 -4.085938 0.957031 -3.996094 L 0.957031 -4.742188 C 1.390625 -4.945312 1.769531 -5.195312 2.09375 -5.484375 C 2.417969 -5.773438 2.644531 -6.054688 2.78125 -6.324219 L 3.277344 -6.324219 Z M 3.277344 0 "/>
</g>
<g id="glyph-1-2">
<path d="M 4.429688 -0.742188 L 4.429688 0 L 0.265625 0 C 0.261719 -0.1875 0.289062 -0.367188 0.355469 -0.539062 C 0.460938 -0.820312 0.632812 -1.101562 0.867188 -1.375 C 1.097656 -1.648438 1.4375 -1.96875 1.878906 -2.328125 C 2.5625 -2.890625 3.023438 -3.335938 3.265625 -3.664062 C 3.507812 -3.992188 3.625 -4.300781 3.625 -4.59375 C 3.625 -4.898438 3.515625 -5.160156 3.296875 -5.367188 C 3.078125 -5.578125 2.792969 -5.683594 2.441406 -5.683594 C 2.066406 -5.683594 1.769531 -5.574219 1.546875 -5.351562 C 1.324219 -5.125 1.210938 -4.816406 1.207031 -4.421875 L 0.414062 -4.503906 C 0.46875 -5.097656 0.671875 -5.546875 1.027344 -5.859375 C 1.382812 -6.167969 1.859375 -6.324219 2.457031 -6.324219 C 3.0625 -6.324219 3.539062 -6.15625 3.894531 -5.824219 C 4.246094 -5.488281 4.421875 -5.070312 4.421875 -4.578125 C 4.421875 -4.324219 4.371094 -4.078125 4.265625 -3.832031 C 4.164062 -3.589844 3.992188 -3.332031 3.753906 -3.0625 C 3.515625 -2.792969 3.117188 -2.425781 2.5625 -1.957031 C 2.097656 -1.566406 1.800781 -1.300781 1.667969 -1.164062 C 1.535156 -1.023438 1.425781 -0.882812 1.339844 -0.742188 Z M 4.429688 -0.742188 "/>
</g>
<g id="glyph-1-3">
<path d="M 0.371094 -1.664062 L 1.144531 -1.765625 C 1.230469 -1.328125 1.382812 -1.011719 1.597656 -0.820312 C 1.808594 -0.625 2.070312 -0.527344 2.375 -0.527344 C 2.738281 -0.527344 3.046875 -0.65625 3.296875 -0.90625 C 3.546875 -1.160156 3.671875 -1.472656 3.675781 -1.84375 C 3.671875 -2.199219 3.558594 -2.492188 3.324219 -2.722656 C 3.09375 -2.953125 2.796875 -3.066406 2.441406 -3.066406 C 2.292969 -3.066406 2.113281 -3.039062 1.894531 -2.980469 L 1.980469 -3.660156 C 2.03125 -3.65625 2.074219 -3.652344 2.105469 -3.652344 C 2.433594 -3.652344 2.730469 -3.738281 2.996094 -3.910156 C 3.257812 -4.082031 3.390625 -4.347656 3.390625 -4.703125 C 3.390625 -4.988281 3.292969 -5.222656 3.101562 -5.410156 C 2.910156 -5.597656 2.664062 -5.6875 2.359375 -5.6875 C 2.058594 -5.6875 1.808594 -5.59375 1.605469 -5.40625 C 1.40625 -5.214844 1.277344 -4.933594 1.21875 -4.554688 L 0.445312 -4.691406 C 0.542969 -5.210938 0.757812 -5.613281 1.089844 -5.898438 C 1.425781 -6.183594 1.84375 -6.324219 2.34375 -6.324219 C 2.6875 -6.324219 3.003906 -6.25 3.292969 -6.105469 C 3.582031 -5.957031 3.800781 -5.753906 3.957031 -5.5 C 4.109375 -5.246094 4.183594 -4.972656 4.183594 -4.6875 C 4.183594 -4.414062 4.113281 -4.167969 3.964844 -3.945312 C 3.820312 -3.722656 3.605469 -3.542969 3.316406 -3.410156 C 3.691406 -3.324219 3.980469 -3.148438 4.183594 -2.875 C 4.390625 -2.605469 4.496094 -2.265625 4.496094 -1.859375 C 4.496094 -1.3125 4.292969 -0.84375 3.894531 -0.460938 C 3.492188 -0.078125 2.984375 0.113281 2.371094 0.113281 C 1.820312 0.113281 1.359375 -0.0546875 0.996094 -0.382812 C 0.628906 -0.710938 0.421875 -1.140625 0.371094 -1.664062 Z M 0.371094 -1.664062 "/>
</g>
<g id="glyph-1-4">
<path d="M 2.84375 0 L 2.84375 -1.507812 L 0.113281 -1.507812 L 0.113281 -2.21875 L 2.988281 -6.300781 L 3.617188 -6.300781 L 3.617188 -2.21875 L 4.46875 -2.21875 L 4.46875 -1.507812 L 3.617188 -1.507812 L 3.617188 0 L 2.84375 0 M 2.84375 -2.21875 L 2.84375 -5.058594 L 0.871094 -2.21875 Z M 2.84375 -2.21875 "/>
</g>
<g id="glyph-2-0">
<path d="M 0.519531 -0.519531 L -4.542969 -5.578125 L -2.644531 -7.476562 C -2.257812 -7.863281 -1.898438 -8.125 -1.5625 -8.253906 C -1.222656 -8.386719 -0.882812 -8.410156 -0.539062 -8.332031 C -0.191406 -8.25 0.09375 -8.09375 0.328125 -7.863281 C 0.542969 -7.644531 0.6875 -7.382812 0.761719 -7.074219 C 0.835938 -6.765625 0.8125 -6.433594 0.695312 -6.082031 C 1.089844 -6.296875 1.476562 -6.378906 1.859375 -6.328125 C 2.238281 -6.273438 2.578125 -6.101562 2.871094 -5.808594 C 3.109375 -5.570312 3.28125 -5.300781 3.382812 -4.996094 C 3.488281 -4.691406 3.519531 -4.410156 3.484375 -4.152344 C 3.445312 -3.894531 3.34375 -3.628906 3.179688 -3.347656 C 3.015625 -3.070312 2.769531 -2.769531 2.449219 -2.449219 L 0.519531 -0.519531 M -1.746094 -4.121094 L -0.652344 -5.21875 C -0.355469 -5.515625 -0.164062 -5.746094 -0.0742188 -5.914062 C 0.046875 -6.136719 0.0898438 -6.347656 0.0585938 -6.550781 C 0.03125 -6.753906 -0.0742188 -6.945312 -0.253906 -7.121094 C -0.421875 -7.289062 -0.609375 -7.398438 -0.816406 -7.445312 C -1.023438 -7.492188 -1.226562 -7.464844 -1.425781 -7.363281 C -1.621094 -7.261719 -1.902344 -7.027344 -2.265625 -6.664062 L -3.277344 -5.652344 L -1.746094 -4.121094 M 0.589844 -1.785156 L 1.851562 -3.046875 C 2.066406 -3.261719 2.210938 -3.421875 2.28125 -3.523438 C 2.410156 -3.707031 2.492188 -3.882812 2.53125 -4.050781 C 2.570312 -4.21875 2.5625 -4.398438 2.503906 -4.585938 C 2.449219 -4.777344 2.339844 -4.953125 2.179688 -5.113281 C 1.988281 -5.300781 1.777344 -5.417969 1.542969 -5.460938 C 1.304688 -5.503906 1.074219 -5.464844 0.847656 -5.351562 C 0.617188 -5.238281 0.34375 -5.019531 0.0195312 -4.695312 L -1.148438 -3.523438 Z M 0.589844 -1.785156 "/>
</g>
<g id="glyph-2-1">
<path d="M 2.40625 -3.3125 C 2.371094 -2.886719 2.289062 -2.527344 2.15625 -2.230469 C 2.023438 -1.9375 1.835938 -1.671875 1.589844 -1.425781 C 1.1875 -1.023438 0.78125 -0.8125 0.367188 -0.792969 C -0.046875 -0.773438 -0.40625 -0.917969 -0.710938 -1.222656 C -0.890625 -1.402344 -1.015625 -1.605469 -1.082031 -1.835938 C -1.148438 -2.066406 -1.160156 -2.292969 -1.117188 -2.515625 C -1.074219 -2.738281 -0.992188 -2.953125 -0.875 -3.167969 C -0.785156 -3.320312 -0.628906 -3.535156 -0.414062 -3.8125 C 0.0273438 -4.375 0.324219 -4.8125 0.480469 -5.132812 C 0.398438 -5.222656 0.34375 -5.277344 0.320312 -5.300781 C 0.0664062 -5.554688 -0.167969 -5.671875 -0.390625 -5.660156 C -0.6875 -5.640625 -0.996094 -5.476562 -1.308594 -5.160156 C -1.601562 -4.871094 -1.765625 -4.601562 -1.800781 -4.359375 C -1.839844 -4.117188 -1.761719 -3.835938 -1.566406 -3.507812 L -2.257812 -2.984375 C -2.464844 -3.296875 -2.582031 -3.597656 -2.617188 -3.886719 C -2.648438 -4.171875 -2.589844 -4.480469 -2.4375 -4.804688 C -2.28125 -5.128906 -2.046875 -5.449219 -1.734375 -5.765625 C -1.421875 -6.078125 -1.128906 -6.296875 -0.859375 -6.417969 C -0.589844 -6.539062 -0.355469 -6.589844 -0.148438 -6.570312 C 0.0546875 -6.550781 0.257812 -6.476562 0.464844 -6.34375 C 0.59375 -6.257812 0.792969 -6.078125 1.070312 -5.800781 L 1.898438 -4.972656 C 2.476562 -4.394531 2.855469 -4.042969 3.035156 -3.914062 C 3.214844 -3.789062 3.414062 -3.695312 3.632812 -3.632812 L 2.984375 -2.984375 C 2.789062 -3.046875 2.597656 -3.15625 2.40625 -3.3125 M 0.964844 -4.648438 C 0.832031 -4.328125 0.574219 -3.914062 0.1875 -3.398438 C -0.03125 -3.105469 -0.171875 -2.882812 -0.230469 -2.730469 C -0.292969 -2.578125 -0.304688 -2.429688 -0.273438 -2.285156 C -0.242188 -2.136719 -0.171875 -2.011719 -0.0664062 -1.902344 C 0.101562 -1.738281 0.300781 -1.660156 0.535156 -1.675781 C 0.773438 -1.691406 1.011719 -1.820312 1.253906 -2.0625 C 1.492188 -2.300781 1.652344 -2.566406 1.734375 -2.855469 C 1.816406 -3.148438 1.808594 -3.429688 1.714844 -3.699219 C 1.640625 -3.90625 1.46875 -4.144531 1.195312 -4.417969 Z M 0.964844 -4.648438 "/>
</g>
<g id="glyph-2-2">
<path d="M 0.460938 -0.460938 L -3.207031 -4.125 L -2.648438 -4.683594 L -2.09375 -4.128906 C -2.210938 -4.53125 -2.25 -4.835938 -2.210938 -5.039062 C -2.171875 -5.242188 -2.082031 -5.417969 -1.9375 -5.5625 C -1.726562 -5.773438 -1.449219 -5.917969 -1.097656 -6 L -0.734375 -5.210938 C -0.976562 -5.148438 -1.175781 -5.039062 -1.324219 -4.890625 C -1.460938 -4.753906 -1.542969 -4.589844 -1.570312 -4.402344 C -1.597656 -4.210938 -1.558594 -4.019531 -1.460938 -3.828125 C -1.308594 -3.539062 -1.101562 -3.261719 -0.839844 -3 L 1.082031 -1.082031 Z M 0.460938 -0.460938 "/>
</g>
<g id="glyph-2-3">
<path d="M 1.515625 -4.203125 L 2.207031 -4.734375 C 2.5625 -4.246094 2.71875 -3.746094 2.683594 -3.230469 C 2.644531 -2.71875 2.425781 -2.261719 2.027344 -1.859375 C 1.523438 -1.359375 0.957031 -1.121094 0.324219 -1.144531 C -0.308594 -1.164062 -0.929688 -1.484375 -1.542969 -2.097656 C -1.9375 -2.492188 -2.21875 -2.902344 -2.386719 -3.332031 C -2.550781 -3.761719 -2.574219 -4.183594 -2.453125 -4.597656 C -2.335938 -5.015625 -2.117188 -5.382812 -1.800781 -5.695312 C -1.402344 -6.09375 -0.976562 -6.320312 -0.523438 -6.371094 C -0.0703125 -6.421875 0.378906 -6.300781 0.820312 -6 L 0.3125 -5.304688 C 0.0078125 -5.492188 -0.28125 -5.574219 -0.550781 -5.554688 C -0.820312 -5.53125 -1.058594 -5.417969 -1.265625 -5.210938 C -1.582031 -4.898438 -1.722656 -4.53125 -1.695312 -4.109375 C -1.664062 -3.691406 -1.40625 -3.238281 -0.921875 -2.75 C -0.429688 -2.257812 0.0234375 -1.996094 0.433594 -1.960938 C 0.847656 -1.925781 1.203125 -2.0625 1.507812 -2.363281 C 1.753906 -2.609375 1.882812 -2.886719 1.894531 -3.199219 C 1.910156 -3.511719 1.78125 -3.847656 1.515625 -4.203125 Z M 1.515625 -4.203125 "/>
</g>
<g id="glyph-2-4">
<path d="M -1.597656 -2.066406 C -2.277344 -2.746094 -2.59375 -3.4375 -2.542969 -4.144531 C -2.496094 -4.730469 -2.25 -5.25 -1.796875 -5.703125 C -1.292969 -6.207031 -0.714844 -6.453125 -0.0625 -6.445312 C 0.585938 -6.433594 1.203125 -6.136719 1.785156 -5.554688 C 2.257812 -5.082031 2.558594 -4.640625 2.6875 -4.230469 C 2.816406 -3.816406 2.820312 -3.402344 2.699219 -2.980469 C 2.578125 -2.5625 2.355469 -2.191406 2.035156 -1.871094 C 1.523438 -1.359375 0.945312 -1.109375 0.296875 -1.121094 C -0.347656 -1.132812 -0.980469 -1.449219 -1.597656 -2.066406 M -0.960938 -2.707031 C -0.492188 -2.238281 -0.0351562 -1.988281 0.402344 -1.960938 C 0.839844 -1.929688 1.214844 -2.070312 1.527344 -2.382812 C 1.835938 -2.691406 1.972656 -3.066406 1.945312 -3.503906 C 1.914062 -3.945312 1.660156 -4.40625 1.175781 -4.886719 C 0.722656 -5.339844 0.277344 -5.578125 -0.164062 -5.605469 C -0.601562 -5.632812 -0.976562 -5.496094 -1.28125 -5.1875 C -1.589844 -4.878906 -1.734375 -4.503906 -1.707031 -4.066406 C -1.679688 -3.628906 -1.429688 -3.175781 -0.960938 -2.707031 Z M -0.960938 -2.707031 "/>
</g>
<g id="glyph-2-5">
<path d="M 2.84375 -2.84375 L 2.382812 -3.308594 C 2.511719 -2.710938 2.355469 -2.1875 1.902344 -1.738281 C 1.609375 -1.445312 1.261719 -1.257812 0.855469 -1.171875 C 0.449219 -1.089844 0.0351562 -1.125 -0.390625 -1.277344 C -0.8125 -1.433594 -1.214844 -1.695312 -1.589844 -2.070312 C -1.953125 -2.4375 -2.226562 -2.832031 -2.402344 -3.25 C -2.578125 -3.671875 -2.621094 -4.082031 -2.539062 -4.484375 C -2.453125 -4.886719 -2.257812 -5.238281 -1.957031 -5.542969 C -1.738281 -5.761719 -1.492188 -5.914062 -1.226562 -5.992188 C -0.960938 -6.070312 -0.699219 -6.089844 -0.441406 -6.050781 L -2.257812 -7.863281 L -1.640625 -8.484375 L 3.421875 -3.421875 L 2.84375 -2.84375 M -0.949219 -2.710938 C -0.480469 -2.242188 -0.03125 -1.988281 0.402344 -1.953125 C 0.832031 -1.917969 1.179688 -2.035156 1.449219 -2.304688 C 1.722656 -2.578125 1.839844 -2.917969 1.808594 -3.332031 C 1.777344 -3.742188 1.53125 -4.175781 1.078125 -4.632812 C 0.574219 -5.136719 0.109375 -5.40625 -0.316406 -5.449219 C -0.746094 -5.488281 -1.101562 -5.367188 -1.382812 -5.085938 C -1.660156 -4.808594 -1.777344 -4.464844 -1.738281 -4.054688 C -1.699219 -3.644531 -1.433594 -3.195312 -0.949219 -2.710938 Z M -0.949219 -2.710938 "/>
</g>
<g id="glyph-2-6">
<path d="M 1.796875 -4.15625 L 2.515625 -4.71875 C 2.789062 -4.242188 2.894531 -3.765625 2.828125 -3.285156 C 2.761719 -2.800781 2.515625 -2.347656 2.089844 -1.921875 C 1.550781 -1.386719 0.960938 -1.125 0.316406 -1.144531 C -0.328125 -1.160156 -0.945312 -1.464844 -1.542969 -2.0625 C -2.160156 -2.679688 -2.480469 -3.316406 -2.503906 -3.972656 C -2.527344 -4.632812 -2.285156 -5.214844 -1.777344 -5.722656 C -1.289062 -6.210938 -0.71875 -6.445312 -0.0742188 -6.421875 C 0.570312 -6.398438 1.195312 -6.085938 1.800781 -5.480469 C 1.835938 -5.441406 1.890625 -5.386719 1.960938 -5.308594 L -0.773438 -2.574219 C -0.347656 -2.195312 0.0742188 -2 0.492188 -1.992188 C 0.914062 -1.984375 1.273438 -2.132812 1.582031 -2.4375 C 1.808594 -2.664062 1.945312 -2.917969 1.984375 -3.199219 C 2.027344 -3.480469 1.964844 -3.800781 1.796875 -4.15625 M -1.25 -3.121094 L 0.796875 -5.167969 C 0.460938 -5.449219 0.152344 -5.601562 -0.132812 -5.628906 C -0.570312 -5.667969 -0.945312 -5.53125 -1.261719 -5.21875 C -1.546875 -4.929688 -1.691406 -4.597656 -1.695312 -4.210938 C -1.695312 -3.824219 -1.550781 -3.460938 -1.25 -3.121094 Z M -1.25 -3.121094 "/>
</g>
<g id="glyph-2-7">
<path d="M -4.0625 -4.734375 L -4.660156 -5.332031 L -1.382812 -8.609375 L -0.902344 -8.125 C -0.878906 -7.457031 -0.742188 -6.683594 -0.492188 -5.796875 C -0.238281 -4.914062 0.101562 -4.085938 0.527344 -3.3125 C 0.828125 -2.761719 1.210938 -2.21875 1.679688 -1.679688 L 1.042969 -1.042969 C 0.652344 -1.449219 0.25 -2.007812 -0.164062 -2.722656 C -0.578125 -3.433594 -0.910156 -4.191406 -1.152344 -4.996094 C -1.398438 -5.800781 -1.542969 -6.539062 -1.585938 -7.210938 Z M -4.0625 -4.734375 "/>
</g>
<g id="glyph-2-8">
<path d="M -1.03125 -1.621094 L -0.433594 -2.328125 C -0.0703125 -2.058594 0.28125 -1.929688 0.617188 -1.949219 C 0.953125 -1.964844 1.246094 -2.097656 1.496094 -2.34375 C 1.792969 -2.644531 1.933594 -3.007812 1.917969 -3.441406 C 1.898438 -3.875 1.703125 -4.277344 1.328125 -4.652344 C 0.976562 -5.003906 0.59375 -5.183594 0.191406 -5.191406 C -0.210938 -5.195312 -0.574219 -5.039062 -0.898438 -4.714844 C -1.097656 -4.515625 -1.234375 -4.289062 -1.304688 -4.039062 C -1.375 -3.785156 -1.382812 -3.542969 -1.328125 -3.304688 L -1.988281 -2.796875 L -4.097656 -5.886719 L -1.582031 -8.402344 L -0.988281 -7.808594 L -3.007812 -5.789062 L -1.917969 -4.15625 C -1.828125 -4.671875 -1.613281 -5.097656 -1.28125 -5.429688 C -0.839844 -5.871094 -0.3125 -6.09375 0.296875 -6.089844 C 0.90625 -6.089844 1.453125 -5.847656 1.933594 -5.367188 C 2.390625 -4.90625 2.652344 -4.378906 2.722656 -3.777344 C 2.804688 -3.042969 2.566406 -2.394531 2.007812 -1.832031 C 1.546875 -1.371094 1.039062 -1.125 0.492188 -1.09375 C -0.0585938 -1.058594 -0.566406 -1.234375 -1.03125 -1.621094 Z M -1.03125 -1.621094 "/>
</g>
<g id="glyph-2-9">
<path d="M -0.304688 -7.339844 L -0.875 -6.675781 C -1.171875 -6.863281 -1.429688 -6.960938 -1.640625 -6.972656 C -1.984375 -6.980469 -2.28125 -6.863281 -2.527344 -6.617188 C -2.726562 -6.417969 -2.84375 -6.1875 -2.882812 -5.929688 C -2.9375 -5.589844 -2.882812 -5.226562 -2.722656 -4.839844 C -2.558594 -4.453125 -2.226562 -4.003906 -1.726562 -3.492188 C -1.804688 -3.871094 -1.789062 -4.222656 -1.683594 -4.550781 C -1.578125 -4.878906 -1.40625 -5.160156 -1.171875 -5.398438 C -0.757812 -5.8125 -0.25 -6.011719 0.34375 -5.996094 C 0.941406 -5.984375 1.480469 -5.734375 1.964844 -5.25 C 2.28125 -4.933594 2.507812 -4.570312 2.644531 -4.160156 C 2.78125 -3.75 2.800781 -3.355469 2.707031 -2.96875 C 2.613281 -2.585938 2.414062 -2.242188 2.109375 -1.9375 C 1.589844 -1.417969 0.980469 -1.1875 0.269531 -1.242188 C -0.4375 -1.296875 -1.226562 -1.757812 -2.101562 -2.632812 C -3.082031 -3.613281 -3.613281 -4.503906 -3.695312 -5.308594 C -3.765625 -6.011719 -3.535156 -6.628906 -3 -7.164062 C -2.601562 -7.5625 -2.164062 -7.777344 -1.6875 -7.808594 C -1.210938 -7.839844 -0.75 -7.683594 -0.304688 -7.339844 M -0.660156 -2.621094 C -0.445312 -2.40625 -0.195312 -2.246094 0.0898438 -2.140625 C 0.378906 -2.039062 0.652344 -2.015625 0.921875 -2.078125 C 1.1875 -2.136719 1.410156 -2.257812 1.589844 -2.4375 C 1.851562 -2.699219 1.96875 -3.03125 1.949219 -3.433594 C 1.925781 -3.832031 1.730469 -4.214844 1.367188 -4.578125 C 1.015625 -4.929688 0.648438 -5.109375 0.261719 -5.125 C -0.128906 -5.140625 -0.460938 -5.007812 -0.746094 -4.722656 C -1.027344 -4.441406 -1.164062 -4.101562 -1.160156 -3.707031 C -1.152344 -3.308594 -0.984375 -2.949219 -0.660156 -2.621094 Z M -0.660156 -2.621094 "/>
</g>
<g id="glyph-2-10">
<path d="M -1.496094 -3.996094 C -1.847656 -3.832031 -2.171875 -3.773438 -2.472656 -3.824219 C -2.769531 -3.875 -3.042969 -4.023438 -3.285156 -4.265625 C -3.65625 -4.636719 -3.832031 -5.078125 -3.820312 -5.59375 C -3.804688 -6.109375 -3.578125 -6.585938 -3.136719 -7.027344 C -2.695312 -7.46875 -2.210938 -7.695312 -1.6875 -7.707031 C -1.160156 -7.722656 -0.714844 -7.542969 -0.34375 -7.175781 C -0.109375 -6.941406 0.03125 -6.675781 0.0820312 -6.378906 C 0.132812 -6.082031 0.0820312 -5.757812 -0.0742188 -5.414062 C 0.335938 -5.625 0.734375 -5.695312 1.125 -5.632812 C 1.511719 -5.570312 1.863281 -5.382812 2.175781 -5.070312 C 2.609375 -4.636719 2.820312 -4.117188 2.808594 -3.519531 C 2.796875 -2.917969 2.539062 -2.367188 2.039062 -1.867188 C 1.542969 -1.367188 0.992188 -1.113281 0.386719 -1.101562 C -0.214844 -1.09375 -0.734375 -1.308594 -1.175781 -1.75 C -1.507812 -2.078125 -1.699219 -2.4375 -1.753906 -2.828125 C -1.808594 -3.214844 -1.722656 -3.605469 -1.496094 -3.996094 M -2.671875 -4.921875 C -2.433594 -4.683594 -2.160156 -4.566406 -1.855469 -4.566406 C -1.546875 -4.570312 -1.273438 -4.695312 -1.027344 -4.941406 C -0.785156 -5.179688 -0.664062 -5.453125 -0.664062 -5.753906 C -0.660156 -6.058594 -0.769531 -6.320312 -0.988281 -6.539062 C -1.214844 -6.765625 -1.484375 -6.878906 -1.800781 -6.878906 C -2.113281 -6.875 -2.386719 -6.757812 -2.621094 -6.523438 C -2.859375 -6.285156 -2.976562 -6.011719 -2.984375 -5.703125 C -2.988281 -5.394531 -2.882812 -5.136719 -2.671875 -4.921875 M -0.535156 -2.386719 C -0.359375 -2.207031 -0.144531 -2.078125 0.105469 -1.996094 C 0.355469 -1.914062 0.609375 -1.914062 0.863281 -1.988281 C 1.121094 -2.0625 1.34375 -2.195312 1.535156 -2.386719 C 1.832031 -2.683594 1.984375 -3.023438 1.984375 -3.40625 C 1.988281 -3.792969 1.839844 -4.132812 1.546875 -4.425781 C 1.246094 -4.726562 0.902344 -4.875 0.503906 -4.871094 C 0.109375 -4.867188 -0.234375 -4.714844 -0.535156 -4.414062 C -0.828125 -4.125 -0.972656 -3.785156 -0.972656 -3.398438 C -0.972656 -3.011719 -0.824219 -2.675781 -0.535156 -2.386719 Z M -0.535156 -2.386719 "/>
</g>
<g id="glyph-2-11">
<path d="M -0.785156 -1.558594 L -0.242188 -2.210938 C 0.0898438 -1.980469 0.390625 -1.871094 0.660156 -1.886719 C 0.929688 -1.90625 1.175781 -2.023438 1.398438 -2.246094 C 1.589844 -2.4375 1.714844 -2.648438 1.769531 -2.882812 C 1.824219 -3.113281 1.828125 -3.347656 1.773438 -3.585938 C 1.71875 -3.824219 1.597656 -4.097656 1.414062 -4.410156 C 1.226562 -4.71875 1.003906 -5.003906 0.746094 -5.261719 C 0.71875 -5.289062 0.675781 -5.328125 0.617188 -5.382812 C 0.691406 -5.058594 0.683594 -4.730469 0.589844 -4.390625 C 0.5 -4.054688 0.328125 -3.757812 0.0742188 -3.507812 C -0.34375 -3.089844 -0.847656 -2.886719 -1.441406 -2.898438 C -2.035156 -2.914062 -2.582031 -3.167969 -3.078125 -3.667969 C -3.59375 -4.179688 -3.855469 -4.746094 -3.867188 -5.359375 C -3.875 -5.976562 -3.652344 -6.511719 -3.195312 -6.96875 C -2.867188 -7.296875 -2.476562 -7.507812 -2.027344 -7.605469 C -1.578125 -7.699219 -1.117188 -7.65625 -0.648438 -7.46875 C -0.179688 -7.28125 0.367188 -6.878906 0.988281 -6.257812 C 1.632812 -5.609375 2.078125 -5.023438 2.320312 -4.5 C 2.566406 -3.976562 2.648438 -3.476562 2.570312 -3 C 2.492188 -2.519531 2.269531 -2.097656 1.894531 -1.722656 C 1.5 -1.328125 1.066406 -1.113281 0.59375 -1.082031 C 0.125 -1.050781 -0.335938 -1.210938 -0.785156 -1.558594 M -0.472656 -6.335938 C -0.828125 -6.691406 -1.207031 -6.878906 -1.605469 -6.898438 C -2.007812 -6.917969 -2.339844 -6.796875 -2.605469 -6.527344 C -2.882812 -6.253906 -3.011719 -5.898438 -2.988281 -5.46875 C -2.96875 -5.039062 -2.78125 -4.644531 -2.421875 -4.285156 C -2.097656 -3.960938 -1.738281 -3.796875 -1.34375 -3.792969 C -0.945312 -3.785156 -0.605469 -3.921875 -0.320312 -4.207031 C -0.0351562 -4.496094 0.101562 -4.832031 0.0859375 -5.21875 C 0.0703125 -5.605469 -0.117188 -5.980469 -0.472656 -6.335938 Z M -0.472656 -6.335938 "/>
</g>
<g id="glyph-2-12">
<path d="M -2.203125 -2.789062 C -2.800781 -3.386719 -3.222656 -3.929688 -3.464844 -4.417969 C -3.703125 -4.90625 -3.804688 -5.371094 -3.757812 -5.8125 C -3.714844 -6.253906 -3.507812 -6.65625 -3.136719 -7.027344 C -2.867188 -7.296875 -2.574219 -7.480469 -2.261719 -7.578125 C -1.945312 -7.671875 -1.617188 -7.683594 -1.277344 -7.613281 C -0.941406 -7.539062 -0.585938 -7.394531 -0.210938 -7.171875 C 0.160156 -6.953125 0.597656 -6.59375 1.097656 -6.089844 C 1.691406 -5.496094 2.109375 -4.957031 2.351562 -4.46875 C 2.597656 -3.984375 2.695312 -3.519531 2.652344 -3.078125 C 2.609375 -2.632812 2.402344 -2.226562 2.03125 -1.859375 C 1.542969 -1.371094 0.984375 -1.160156 0.355469 -1.234375 C -0.398438 -1.320312 -1.253906 -1.839844 -2.203125 -2.789062 M -1.5625 -3.429688 C -0.734375 -2.597656 -0.0820312 -2.140625 0.386719 -2.0625 C 0.855469 -1.980469 1.234375 -2.082031 1.519531 -2.367188 C 1.804688 -2.652344 1.90625 -3.03125 1.824219 -3.503906 C 1.742188 -3.972656 1.289062 -4.625 0.460938 -5.453125 C -0.375 -6.285156 -1.023438 -6.742188 -1.492188 -6.820312 C -1.960938 -6.898438 -2.339844 -6.792969 -2.632812 -6.503906 C -2.917969 -6.21875 -3.023438 -5.871094 -2.953125 -5.457031 C -2.859375 -4.9375 -2.394531 -4.257812 -1.5625 -3.429688 Z M -1.5625 -3.429688 "/>
</g>
<g id="glyph-2-13">
<path d="M 2.632812 -2.632812 L 2.011719 -2.011719 L -1.949219 -5.972656 C -1.953125 -5.679688 -2.007812 -5.34375 -2.109375 -4.957031 C -2.207031 -4.570312 -2.320312 -4.246094 -2.441406 -3.980469 L -3.042969 -4.582031 C -2.859375 -5.09375 -2.75 -5.59375 -2.722656 -6.085938 C -2.695312 -6.578125 -2.738281 -6.988281 -2.847656 -7.316406 L -2.449219 -7.714844 Z M 2.632812 -2.632812 "/>
</g>
<g id="glyph-2-14">
<path d="M 2.960938 -4.15625 L 3.558594 -3.558594 L 0.214844 -0.214844 C 0.0585938 -0.359375 -0.0585938 -0.527344 -0.144531 -0.71875 C -0.289062 -1.03125 -0.375 -1.390625 -0.410156 -1.800781 C -0.441406 -2.210938 -0.425781 -2.734375 -0.363281 -3.378906 C -0.261719 -4.382812 -0.25 -5.109375 -0.320312 -5.566406 C -0.390625 -6.023438 -0.542969 -6.371094 -0.777344 -6.605469 C -1.023438 -6.851562 -1.320312 -6.972656 -1.664062 -6.964844 C -2.007812 -6.957031 -2.324219 -6.8125 -2.605469 -6.527344 C -2.90625 -6.230469 -3.054688 -5.902344 -3.054688 -5.542969 C -3.054688 -5.183594 -2.898438 -4.84375 -2.582031 -4.523438 L -3.285156 -3.949219 C -3.71875 -4.46875 -3.917969 -4.996094 -3.882812 -5.53125 C -3.847656 -6.066406 -3.589844 -6.578125 -3.105469 -7.058594 C -2.621094 -7.542969 -2.101562 -7.792969 -1.550781 -7.804688 C -0.996094 -7.820312 -0.523438 -7.628906 -0.125 -7.230469 C 0.078125 -7.027344 0.234375 -6.785156 0.347656 -6.507812 C 0.460938 -6.230469 0.53125 -5.886719 0.554688 -5.476562 C 0.578125 -5.070312 0.554688 -4.453125 0.488281 -3.628906 C 0.425781 -2.941406 0.398438 -2.492188 0.40625 -2.273438 C 0.410156 -2.054688 0.4375 -1.855469 0.480469 -1.675781 Z M 2.960938 -4.15625 "/>
</g>
<g id="glyph-2-15">
<path d="M -1.039062 -1.632812 L -0.5 -2.335938 C -0.078125 -2.054688 0.296875 -1.925781 0.625 -1.941406 C 0.953125 -1.957031 1.238281 -2.085938 1.484375 -2.335938 C 1.777344 -2.625 1.921875 -2.972656 1.921875 -3.378906 C 1.921875 -3.78125 1.769531 -4.132812 1.472656 -4.433594 C 1.183594 -4.71875 0.855469 -4.859375 0.484375 -4.859375 C 0.113281 -4.859375 -0.214844 -4.714844 -0.503906 -4.425781 C -0.621094 -4.308594 -0.746094 -4.140625 -0.875 -3.917969 L -1.351562 -4.535156 C -1.304688 -4.570312 -1.269531 -4.601562 -1.242188 -4.625 C -0.976562 -4.890625 -0.808594 -5.199219 -0.734375 -5.546875 C -0.660156 -5.898438 -0.769531 -6.21875 -1.054688 -6.503906 C -1.285156 -6.734375 -1.550781 -6.84375 -1.855469 -6.839844 C -2.15625 -6.835938 -2.433594 -6.710938 -2.675781 -6.46875 C -2.917969 -6.226562 -3.042969 -5.949219 -3.050781 -5.632812 C -3.0625 -5.320312 -2.9375 -4.992188 -2.679688 -4.640625 L -3.410156 -4.128906 C -3.75 -4.621094 -3.902344 -5.117188 -3.863281 -5.617188 C -3.820312 -6.113281 -3.601562 -6.5625 -3.199219 -6.964844 C -2.925781 -7.242188 -2.609375 -7.433594 -2.261719 -7.550781 C -1.910156 -7.664062 -1.570312 -7.679688 -1.242188 -7.597656 C -0.914062 -7.515625 -0.632812 -7.359375 -0.402344 -7.128906 C -0.183594 -6.910156 -0.0429688 -6.652344 0.015625 -6.355469 C 0.078125 -6.058594 0.046875 -5.742188 -0.0742188 -5.40625 C 0.292969 -5.636719 0.667969 -5.726562 1.050781 -5.675781 C 1.433594 -5.621094 1.789062 -5.433594 2.117188 -5.105469 C 2.558594 -4.664062 2.773438 -4.128906 2.757812 -3.5 C 2.742188 -2.871094 2.488281 -2.308594 1.996094 -1.816406 C 1.550781 -1.371094 1.050781 -1.136719 0.492188 -1.105469 C -0.0664062 -1.078125 -0.578125 -1.253906 -1.039062 -1.632812 Z M -1.039062 -1.632812 "/>
</g>
<g id="glyph-2-16">
<path d="M 2.285156 -2.285156 L 1.074219 -3.496094 L -1.121094 -1.300781 L -1.691406 -1.871094 L -2.660156 -7.460938 L -2.15625 -7.96875 L 1.125 -4.6875 L 1.808594 -5.371094 L 2.378906 -4.800781 L 1.695312 -4.117188 L 2.90625 -2.90625 L 2.285156 -2.285156 M 0.503906 -4.066406 L -1.777344 -6.347656 L -1.082031 -2.484375 Z M 0.503906 -4.066406 "/>
</g>
<g id="glyph-3-0">
<path d="M 0.492188 -2.53125 L 1.476562 -2.617188 C 1.523438 -2.222656 1.632812 -1.898438 1.800781 -1.644531 C 1.972656 -1.394531 2.234375 -1.191406 2.59375 -1.035156 C 2.953125 -0.878906 3.355469 -0.800781 3.804688 -0.800781 C 4.199219 -0.800781 4.550781 -0.859375 4.855469 -0.976562 C 5.160156 -1.09375 5.386719 -1.257812 5.535156 -1.464844 C 5.683594 -1.667969 5.757812 -1.894531 5.757812 -2.136719 C 5.757812 -2.382812 5.6875 -2.601562 5.542969 -2.785156 C 5.398438 -2.96875 5.164062 -3.125 4.835938 -3.25 C 4.621094 -3.332031 4.15625 -3.460938 3.433594 -3.632812 C 2.707031 -3.808594 2.203125 -3.972656 1.914062 -4.125 C 1.535156 -4.320312 1.257812 -4.566406 1.070312 -4.859375 C 0.886719 -5.148438 0.796875 -5.476562 0.796875 -5.839844 C 0.796875 -6.234375 0.90625 -6.605469 1.132812 -6.953125 C 1.359375 -7.296875 1.6875 -7.5625 2.121094 -7.738281 C 2.554688 -7.917969 3.035156 -8.007812 3.566406 -8.007812 C 4.148438 -8.007812 4.664062 -7.914062 5.109375 -7.726562 C 5.554688 -7.539062 5.898438 -7.261719 6.140625 -6.898438 C 6.378906 -6.53125 6.507812 -6.117188 6.527344 -5.65625 L 5.527344 -5.582031 C 5.472656 -6.078125 5.292969 -6.453125 4.980469 -6.707031 C 4.671875 -6.960938 4.214844 -7.089844 3.609375 -7.089844 C 2.980469 -7.089844 2.519531 -6.972656 2.230469 -6.742188 C 1.945312 -6.511719 1.800781 -6.234375 1.800781 -5.90625 C 1.800781 -5.625 1.902344 -5.390625 2.105469 -5.210938 C 2.304688 -5.027344 2.828125 -4.839844 3.675781 -4.648438 C 4.523438 -4.457031 5.105469 -4.289062 5.417969 -4.148438 C 5.878906 -3.933594 6.214844 -3.667969 6.433594 -3.34375 C 6.652344 -3.019531 6.761719 -2.644531 6.761719 -2.222656 C 6.761719 -1.804688 6.640625 -1.410156 6.402344 -1.039062 C 6.164062 -0.667969 5.816406 -0.378906 5.367188 -0.175781 C 4.917969 0.03125 4.414062 0.132812 3.851562 0.132812 C 3.136719 0.132812 2.542969 0.03125 2.058594 -0.175781 C 1.578125 -0.386719 1.199219 -0.699219 0.925781 -1.113281 C 0.652344 -1.53125 0.507812 -2.003906 0.492188 -2.53125 Z M 0.492188 -2.53125 "/>
</g>
<g id="glyph-3-1">
<path d="M 4.445312 -0.703125 C 4.089844 -0.398438 3.746094 -0.183594 3.414062 -0.0585938 C 3.082031 0.0664062 2.726562 0.128906 2.347656 0.128906 C 1.71875 0.128906 1.238281 -0.0234375 0.902344 -0.332031 C 0.566406 -0.636719 0.398438 -1.027344 0.398438 -1.503906 C 0.398438 -1.78125 0.460938 -2.039062 0.589844 -2.269531 C 0.714844 -2.5 0.882812 -2.6875 1.085938 -2.824219 C 1.292969 -2.964844 1.523438 -3.070312 1.78125 -3.140625 C 1.972656 -3.191406 2.257812 -3.242188 2.640625 -3.289062 C 3.421875 -3.378906 3.996094 -3.492188 4.367188 -3.621094 C 4.371094 -3.753906 4.371094 -3.835938 4.371094 -3.871094 C 4.371094 -4.265625 4.28125 -4.542969 4.097656 -4.703125 C 3.851562 -4.921875 3.484375 -5.03125 2.996094 -5.03125 C 2.542969 -5.03125 2.207031 -4.953125 1.988281 -4.792969 C 1.773438 -4.632812 1.613281 -4.351562 1.507812 -3.949219 L 0.5625 -4.078125 C 0.648438 -4.480469 0.792969 -4.808594 0.988281 -5.058594 C 1.183594 -5.304688 1.46875 -5.496094 1.84375 -5.632812 C 2.214844 -5.765625 2.644531 -5.832031 3.136719 -5.832031 C 3.625 -5.832031 4.019531 -5.777344 4.324219 -5.660156 C 4.628906 -5.546875 4.851562 -5.402344 4.996094 -5.230469 C 5.136719 -5.054688 5.238281 -4.835938 5.296875 -4.570312 C 5.328125 -4.40625 5.34375 -4.109375 5.34375 -3.679688 L 5.34375 -2.390625 C 5.34375 -1.492188 5.363281 -0.921875 5.40625 -0.683594 C 5.445312 -0.445312 5.527344 -0.21875 5.648438 0 L 4.640625 0 C 4.539062 -0.199219 4.476562 -0.433594 4.445312 -0.703125 M 4.367188 -2.863281 C 4.015625 -2.71875 3.488281 -2.597656 2.789062 -2.496094 C 2.390625 -2.441406 2.109375 -2.375 1.945312 -2.304688 C 1.78125 -2.234375 1.652344 -2.128906 1.5625 -1.988281 C 1.472656 -1.851562 1.429688 -1.699219 1.429688 -1.53125 C 1.429688 -1.273438 1.527344 -1.058594 1.722656 -0.886719 C 1.917969 -0.714844 2.203125 -0.628906 2.578125 -0.628906 C 2.949219 -0.628906 3.28125 -0.710938 3.570312 -0.871094 C 3.863281 -1.035156 4.074219 -1.257812 4.210938 -1.542969 C 4.316406 -1.761719 4.367188 -2.082031 4.367188 -2.507812 Z M 4.367188 -2.863281 "/>
</g>
<g id="glyph-3-2">
<path d="M 0.726562 0 L 0.726562 -5.703125 L 1.589844 -5.703125 L 1.589844 -4.902344 C 1.769531 -5.183594 2.007812 -5.40625 2.304688 -5.578125 C 2.601562 -5.746094 2.941406 -5.832031 3.320312 -5.832031 C 3.742188 -5.832031 4.089844 -5.746094 4.359375 -5.570312 C 4.628906 -5.394531 4.820312 -5.148438 4.929688 -4.835938 C 5.382812 -5.5 5.96875 -5.832031 6.691406 -5.832031 C 7.257812 -5.832031 7.691406 -5.675781 7.996094 -5.363281 C 8.300781 -5.050781 8.453125 -4.566406 8.453125 -3.914062 L 8.453125 0 L 7.492188 0 L 7.492188 -3.59375 C 7.492188 -3.980469 7.460938 -4.257812 7.398438 -4.429688 C 7.335938 -4.597656 7.222656 -4.734375 7.058594 -4.839844 C 6.894531 -4.941406 6.699219 -4.996094 6.476562 -4.996094 C 6.078125 -4.996094 5.742188 -4.863281 5.476562 -4.59375 C 5.214844 -4.328125 5.082031 -3.902344 5.082031 -3.3125 L 5.082031 0 L 4.113281 0 L 4.113281 -3.707031 C 4.113281 -4.136719 4.035156 -4.457031 3.878906 -4.671875 C 3.71875 -4.886719 3.460938 -4.996094 3.105469 -4.996094 C 2.832031 -4.996094 2.582031 -4.921875 2.351562 -4.78125 C 2.117188 -4.636719 1.953125 -4.425781 1.847656 -4.152344 C 1.742188 -3.875 1.691406 -3.480469 1.691406 -2.960938 L 1.691406 0 Z M 0.726562 0 "/>
</g>
<g id="glyph-3-3">
<path d="M 0.726562 2.1875 L 0.726562 -5.703125 L 1.605469 -5.703125 L 1.605469 -4.960938 C 1.8125 -5.253906 2.046875 -5.46875 2.308594 -5.617188 C 2.570312 -5.761719 2.886719 -5.832031 3.261719 -5.832031 C 3.746094 -5.832031 4.175781 -5.707031 4.550781 -5.457031 C 4.921875 -5.207031 5.203125 -4.851562 5.390625 -4.394531 C 5.582031 -3.941406 5.675781 -3.4375 5.675781 -2.894531 C 5.675781 -2.3125 5.574219 -1.785156 5.363281 -1.320312 C 5.152344 -0.851562 4.847656 -0.492188 4.449219 -0.246094 C 4.050781 0.00390625 3.632812 0.128906 3.191406 0.128906 C 2.867188 0.128906 2.578125 0.0625 2.324219 -0.0742188 C 2.066406 -0.210938 1.855469 -0.382812 1.691406 -0.589844 L 1.691406 2.1875 L 0.726562 2.1875 M 1.601562 -2.820312 C 1.601562 -2.085938 1.75 -1.542969 2.046875 -1.191406 C 2.34375 -0.839844 2.703125 -0.664062 3.125 -0.664062 C 3.554688 -0.664062 3.921875 -0.847656 4.230469 -1.210938 C 4.535156 -1.574219 4.6875 -2.136719 4.6875 -2.898438 C 4.6875 -3.628906 4.539062 -4.171875 4.242188 -4.53125 C 3.941406 -4.894531 3.585938 -5.074219 3.167969 -5.074219 C 2.757812 -5.074219 2.394531 -4.882812 2.074219 -4.5 C 1.757812 -4.113281 1.601562 -3.554688 1.601562 -2.820312 Z M 1.601562 -2.820312 "/>
</g>
<g id="glyph-3-4">
<path d="M 0.703125 0 L 0.703125 -7.875 L 1.671875 -7.875 L 1.671875 0 Z M 0.703125 0 "/>
</g>
<g id="glyph-3-5">
<path d="M 4.628906 -1.835938 L 5.628906 -1.714844 C 5.472656 -1.128906 5.179688 -0.675781 4.753906 -0.355469 C 4.328125 -0.03125 3.78125 0.128906 3.121094 0.128906 C 2.285156 0.128906 1.625 -0.128906 1.136719 -0.640625 C 0.648438 -1.15625 0.402344 -1.875 0.402344 -2.804688 C 0.402344 -3.761719 0.648438 -4.507812 1.144531 -5.039062 C 1.636719 -5.566406 2.277344 -5.832031 3.066406 -5.832031 C 3.828125 -5.832031 4.453125 -5.574219 4.9375 -5.054688 C 5.417969 -4.535156 5.660156 -3.804688 5.660156 -2.863281 C 5.660156 -2.804688 5.660156 -2.71875 5.65625 -2.605469 L 1.402344 -2.605469 C 1.4375 -1.976562 1.613281 -1.5 1.933594 -1.164062 C 2.253906 -0.832031 2.648438 -0.664062 3.125 -0.664062 C 3.480469 -0.664062 3.78125 -0.757812 4.035156 -0.945312 C 4.285156 -1.132812 4.484375 -1.429688 4.628906 -1.835938 M 1.457031 -3.398438 L 4.640625 -3.398438 C 4.597656 -3.878906 4.476562 -4.238281 4.273438 -4.480469 C 3.96875 -4.851562 3.566406 -5.039062 3.078125 -5.039062 C 2.632812 -5.039062 2.261719 -4.890625 1.957031 -4.59375 C 1.65625 -4.296875 1.488281 -3.898438 1.457031 -3.398438 Z M 1.457031 -3.398438 "/>
</g>
<g id="glyph-4-0">
<path d="M 0 -0.835938 L -7.875 -0.839844 L -7.875 -1.90625 L -1.691406 -6.042969 L -7.875 -6.042969 L -7.875 -7.042969 L 0 -7.042969 L 0 -5.972656 L -6.1875 -1.835938 L 0 -1.835938 Z M 0 -0.835938 "/>
</g>
<g id="glyph-4-1">
<path d="M -2.0625 -0.457031 L -2.148438 -1.472656 C -1.65625 -1.546875 -1.28125 -1.722656 -1.035156 -1.996094 C -0.785156 -2.269531 -0.660156 -2.601562 -0.660156 -2.984375 C -0.660156 -3.453125 -0.835938 -3.84375 -1.1875 -4.167969 C -1.539062 -4.492188 -2.003906 -4.652344 -2.582031 -4.652344 C -3.136719 -4.652344 -3.570312 -4.496094 -3.886719 -4.1875 C -4.207031 -3.878906 -4.367188 -3.472656 -4.367188 -2.96875 C -4.367188 -2.660156 -4.296875 -2.378906 -4.15625 -2.128906 C -4.011719 -1.875 -3.828125 -1.679688 -3.605469 -1.535156 L -3.722656 -0.628906 L -7.765625 -1.390625 L -7.765625 -5.308594 L -6.84375 -5.304688 L -6.84375 -2.164062 L -4.726562 -1.742188 C -5.054688 -2.210938 -5.21875 -2.707031 -5.21875 -3.226562 C -5.21875 -3.914062 -4.984375 -4.496094 -4.507812 -4.96875 C -4.03125 -5.441406 -3.417969 -5.675781 -2.667969 -5.675781 C -1.957031 -5.675781 -1.339844 -5.46875 -0.820312 -5.054688 C -0.183594 -4.550781 0.132812 -3.859375 0.132812 -2.984375 C 0.132812 -2.269531 -0.0664062 -1.6875 -0.46875 -1.234375 C -0.867188 -0.78125 -1.398438 -0.519531 -2.0625 -0.457031 Z M -2.0625 -0.457031 "/>
</g>
<g id="glyph-4-2">
<path d="M -3.882812 -0.457031 C -4.8125 -0.457031 -5.5625 -0.550781 -6.132812 -0.742188 C -6.699219 -0.933594 -7.136719 -1.21875 -7.445312 -1.597656 C -7.753906 -1.976562 -7.90625 -2.449219 -7.90625 -3.023438 C -7.90625 -3.445312 -7.820312 -3.816406 -7.652344 -4.136719 C -7.480469 -4.453125 -7.234375 -4.71875 -6.914062 -4.925781 C -6.59375 -5.132812 -6.203125 -5.296875 -5.746094 -5.414062 C -5.285156 -5.53125 -4.664062 -5.589844 -3.882812 -5.589844 C -2.960938 -5.589844 -2.214844 -5.496094 -1.644531 -5.304688 C -1.078125 -5.117188 -0.640625 -4.832031 -0.332031 -4.457031 C -0.0195312 -4.078125 0.132812 -3.601562 0.132812 -3.023438 C 0.132812 -2.265625 -0.136719 -1.667969 -0.683594 -1.234375 C -1.335938 -0.714844 -2.40625 -0.457031 -3.882812 -0.457031 M -3.882812 -1.449219 C -2.589844 -1.449219 -1.730469 -1.601562 -1.300781 -1.902344 C -0.875 -2.207031 -0.660156 -2.578125 -0.660156 -3.023438 C -0.660156 -3.46875 -0.875 -3.839844 -1.304688 -4.144531 C -1.734375 -4.445312 -2.59375 -4.597656 -3.882812 -4.597656 C -5.179688 -4.597656 -6.039062 -4.445312 -6.46875 -4.144531 C -6.894531 -3.839844 -7.105469 -3.464844 -7.105469 -3.011719 C -7.105469 -2.570312 -6.917969 -2.214844 -6.542969 -1.949219 C -6.0625 -1.617188 -5.175781 -1.449219 -3.882812 -1.449219 Z M -3.882812 -1.449219 "/>
</g>
<g id="glyph-4-3">
</g>
<g id="glyph-4-4">
<path d="M 2.316406 -2.574219 C 1.640625 -2.039062 0.855469 -1.589844 -0.046875 -1.21875 C -0.949219 -0.851562 -1.886719 -0.667969 -2.851562 -0.667969 C -3.703125 -0.667969 -4.519531 -0.804688 -5.300781 -1.078125 C -6.207031 -1.402344 -7.109375 -1.898438 -8.007812 -2.574219 L -8.007812 -3.265625 C -7.261719 -2.832031 -6.730469 -2.546875 -6.414062 -2.40625 C -5.917969 -2.1875 -5.402344 -2.015625 -4.867188 -1.890625 C -4.195312 -1.738281 -3.523438 -1.660156 -2.847656 -1.660156 C -1.125 -1.660156 0.597656 -2.195312 2.316406 -3.265625 Z M 2.316406 -2.574219 "/>
</g>
<g id="glyph-4-5">
<path d="M 0 -1.617188 L 0 -0.71875 L -7.875 -0.71875 L -7.875 -1.6875 L -5.066406 -1.6875 C -5.578125 -2.09375 -5.832031 -2.617188 -5.832031 -3.25 C -5.832031 -3.601562 -5.761719 -3.933594 -5.621094 -4.246094 C -5.480469 -4.558594 -5.28125 -4.816406 -5.023438 -5.019531 C -4.769531 -5.222656 -4.460938 -5.378906 -4.097656 -5.496094 C -3.738281 -5.609375 -3.351562 -5.667969 -2.9375 -5.667969 C -1.960938 -5.667969 -1.203125 -5.425781 -0.671875 -4.941406 C -0.136719 -4.457031 0.128906 -3.878906 0.128906 -3.203125 C 0.128906 -2.527344 -0.152344 -2 -0.714844 -1.617188 L 0 -1.617188 M -2.894531 -1.605469 C -2.210938 -1.605469 -1.71875 -1.699219 -1.414062 -1.886719 C -0.914062 -2.191406 -0.664062 -2.601562 -0.664062 -3.121094 C -0.664062 -3.542969 -0.847656 -3.910156 -1.214844 -4.214844 C -1.582031 -4.523438 -2.128906 -4.679688 -2.855469 -4.679688 C -3.601562 -4.679688 -4.152344 -4.53125 -4.507812 -4.234375 C -4.859375 -3.941406 -5.039062 -3.582031 -5.039062 -3.164062 C -5.039062 -2.742188 -4.855469 -2.375 -4.488281 -2.066406 C -4.121094 -1.761719 -3.589844 -1.605469 -2.894531 -1.605469 Z M -2.894531 -1.605469 "/>
</g>
<g id="glyph-4-6">
<path d="M 2.1875 -0.726562 L -5.703125 -0.726562 L -5.703125 -1.605469 L -4.960938 -1.605469 C -5.253906 -1.8125 -5.46875 -2.046875 -5.617188 -2.308594 C -5.761719 -2.570312 -5.832031 -2.886719 -5.832031 -3.261719 C -5.832031 -3.746094 -5.707031 -4.175781 -5.457031 -4.550781 C -5.207031 -4.921875 -4.851562 -5.203125 -4.394531 -5.390625 C -3.941406 -5.582031 -3.4375 -5.675781 -2.894531 -5.675781 C -2.3125 -5.675781 -1.785156 -5.574219 -1.320312 -5.363281 C -0.851562 -5.152344 -0.492188 -4.847656 -0.246094 -4.449219 C 0.00390625 -4.050781 0.128906 -3.632812 0.128906 -3.191406 C 0.128906 -2.867188 0.0625 -2.578125 -0.0742188 -2.324219 C -0.210938 -2.066406 -0.382812 -1.855469 -0.589844 -1.691406 L 2.1875 -1.691406 L 2.1875 -0.726562 M -2.820312 -1.601562 C -2.085938 -1.601562 -1.542969 -1.75 -1.191406 -2.046875 C -0.839844 -2.34375 -0.664062 -2.703125 -0.664062 -3.125 C -0.664062 -3.554688 -0.847656 -3.921875 -1.210938 -4.230469 C -1.574219 -4.535156 -2.136719 -4.6875 -2.898438 -4.6875 C -3.628906 -4.6875 -4.171875 -4.539062 -4.53125 -4.242188 C -4.894531 -3.941406 -5.074219 -3.585938 -5.074219 -3.167969 C -5.074219 -2.757812 -4.882812 -2.394531 -4.5 -2.074219 C -4.113281 -1.757812 -3.554688 -1.601562 -2.820312 -1.601562 Z M -2.820312 -1.601562 "/>
</g>
<g id="glyph-4-7">
<path d="M 2.316406 -1.359375 L 2.316406 -0.664062 C 0.597656 -1.738281 -1.125 -2.273438 -2.847656 -2.273438 C -3.519531 -2.273438 -4.1875 -2.195312 -4.851562 -2.042969 C -5.386719 -1.917969 -5.902344 -1.75 -6.398438 -1.53125 C -6.71875 -1.390625 -7.257812 -1.101562 -8.007812 -0.667969 L -8.007812 -1.359375 C -7.109375 -2.03125 -6.207031 -2.53125 -5.300781 -2.851562 C -4.519531 -3.128906 -3.703125 -3.265625 -2.851562 -3.265625 C -1.886719 -3.265625 -0.949219 -3.082031 -0.046875 -2.710938 C 0.855469 -2.339844 1.640625 -1.890625 2.316406 -1.359375 Z M 2.316406 -1.359375 "/>
</g>
</g>
<clipPath id="clip-0">
<path clip-rule="nonzero" d="M 44.628906 5.480469 L 633.519531 5.480469 L 633.519531 271.839844 L 44.628906 271.839844 Z M 44.628906 5.480469 "/>
</clipPath>
<clipPath id="clip-1">
<path clip-rule="nonzero" d="M 115 5.480469 L 142 5.480469 L 142 15 L 115 15 Z M 115 5.480469 "/>
</clipPath>
</defs>
<rect x="-63.9" y="-33.9" width="766.8" height="406.8" fill="rgb(100%, 100%, 100%)" fill-opacity="1"/>
<rect x="-63.9" y="-33.9" width="766.8" height="406.8" fill="rgb(100%, 100%, 100%)" fill-opacity="1"/>
<path fill="none" stroke-width="1.066978" stroke-linecap="round" stroke-linejoin="round" stroke="rgb(100%, 100%, 100%)" stroke-opacity="1" stroke-miterlimit="10" d="M 0 339 L 639 339 L 639 0 L 0 0 Z M 0 339 "/>
<g clip-path="url(#clip-0)">
<path fill-rule="nonzero" fill="rgb(100%, 100%, 100%)" fill-opacity="1" d="M 44.628906 271.839844 L 633.519531 271.839844 L 633.519531 5.480469 L 44.628906 5.480469 Z M 44.628906 271.839844 "/>
</g>
<path fill-rule="nonzero" fill="rgb(55.294118%, 82.745098%, 78.039216%)" fill-opacity="1" stroke-width="1.066978" stroke-linecap="butt" stroke-linejoin="miter" stroke="rgb(0%, 0%, 0%)" stroke-opacity="1" stroke-miterlimit="10" d="M 57.773438 259.734375 L 94.578125 259.734375 L 94.578125 128.289062 L 57.773438 128.289062 Z M 57.773438 259.734375 "/>
<path fill-rule="nonzero" fill="rgb(100%, 100%, 70.196078%)" fill-opacity="1" stroke-width="1.066978" stroke-linecap="butt" stroke-linejoin="miter" stroke="rgb(0%, 0%, 0%)" stroke-opacity="1" stroke-miterlimit="10" d="M 110.355469 259.734375 L 147.160156 259.734375 L 147.160156 17.589844 L 110.355469 17.589844 Z M 110.355469 259.734375 "/>
<path fill-rule="nonzero" fill="rgb(74.509804%, 72.941176%, 85.490196%)" fill-opacity="1" stroke-width="1.066978" stroke-linecap="butt" stroke-linejoin="miter" stroke="rgb(0%, 0%, 0%)" stroke-opacity="1" stroke-miterlimit="10" d="M 162.933594 259.734375 L 199.738281 259.734375 L 199.738281 107.496094 L 162.933594 107.496094 Z M 162.933594 259.734375 "/>
<path fill-rule="nonzero" fill="rgb(98.431373%, 50.196078%, 44.705882%)" fill-opacity="1" stroke-width="1.066978" stroke-linecap="butt" stroke-linejoin="miter" stroke="rgb(0%, 0%, 0%)" stroke-opacity="1" stroke-miterlimit="10" d="M 215.511719 259.734375 L 252.316406 259.734375 L 252.316406 109.214844 L 215.511719 109.214844 Z M 215.511719 259.734375 "/>
<path fill-rule="nonzero" fill="rgb(50.196078%, 69.411765%, 82.745098%)" fill-opacity="1" stroke-width="1.066978" stroke-linecap="butt" stroke-linejoin="miter" stroke="rgb(0%, 0%, 0%)" stroke-opacity="1" stroke-miterlimit="10" d="M 268.09375 259.734375 L 304.898438 259.734375 L 304.898438 118.386719 L 268.09375 118.386719 Z M 268.09375 259.734375 "/>
<path fill-rule="nonzero" fill="rgb(99.215686%, 70.588235%, 38.431373%)" fill-opacity="1" stroke-width="1.066978" stroke-linecap="butt" stroke-linejoin="miter" stroke="rgb(0%, 0%, 0%)" stroke-opacity="1" stroke-miterlimit="10" d="M 320.671875 259.734375 L 357.476562 259.734375 L 357.476562 131.675781 L 320.671875 131.675781 Z M 320.671875 259.734375 "/>
<path fill-rule="nonzero" fill="rgb(70.196078%, 87.058824%, 41.176471%)" fill-opacity="1" stroke-width="1.066978" stroke-linecap="butt" stroke-linejoin="miter" stroke="rgb(0%, 0%, 0%)" stroke-opacity="1" stroke-miterlimit="10" d="M 373.25 259.734375 L 410.054688 259.734375 L 410.054688 78.878906 L 373.25 78.878906 Z M 373.25 259.734375 "/>
<path fill-rule="nonzero" fill="rgb(98.823529%, 80.392157%, 89.803922%)" fill-opacity="1" stroke-width="1.066978" stroke-linecap="butt" stroke-linejoin="miter" stroke="rgb(0%, 0%, 0%)" stroke-opacity="1" stroke-miterlimit="10" d="M 425.832031 259.734375 L 462.636719 259.734375 L 462.636719 167.117188 L 425.832031 167.117188 Z M 425.832031 259.734375 "/>
<path fill-rule="nonzero" fill="rgb(85.098039%, 85.098039%, 85.098039%)" fill-opacity="1" stroke-width="1.066978" stroke-linecap="butt" stroke-linejoin="miter" stroke="rgb(0%, 0%, 0%)" stroke-opacity="1" stroke-miterlimit="10" d="M 478.410156 259.734375 L 515.214844 259.734375 L 515.214844 144.863281 L 478.410156 144.863281 Z M 478.410156 259.734375 "/>
<path fill-rule="nonzero" fill="rgb(73.72549%, 50.196078%, 74.117647%)" fill-opacity="1" stroke-width="1.066978" stroke-linecap="butt" stroke-linejoin="miter" stroke="rgb(0%, 0%, 0%)" stroke-opacity="1" stroke-miterlimit="10" d="M 530.992188 259.734375 L 567.796875 259.734375 L 567.796875 134.492188 L 530.992188 134.492188 Z M 530.992188 259.734375 "/>
<path fill-rule="nonzero" fill="rgb(80%, 92.156863%, 77.254902%)" fill-opacity="1" stroke-width="1.066978" stroke-linecap="butt" stroke-linejoin="miter" stroke="rgb(0%, 0%, 0%)" stroke-opacity="1" stroke-miterlimit="10" d="M 583.570312 259.734375 L 620.375 259.734375 L 620.375 141.371094 L 583.570312 141.371094 Z M 583.570312 259.734375 "/>
<g fill="rgb(0%, 0%, 0%)" fill-opacity="1">
<use xlink:href="#glyph-0-0" x="63.714844" y="124.222656"/>
<use xlink:href="#glyph-0-1" x="69.253267" y="124.222656"/>
<use xlink:href="#glyph-0-2" x="72.020048" y="124.222656"/>
<use xlink:href="#glyph-0-0" x="77.558471" y="124.222656"/>
<use xlink:href="#glyph-0-0" x="83.096894" y="124.222656"/>
</g>
<g clip-path="url(#clip-1)">
<g fill="rgb(0%, 0%, 0%)" fill-opacity="1">
<use xlink:href="#glyph-0-3" x="116.296875" y="13.523438"/>
<use xlink:href="#glyph-0-1" x="121.835298" y="13.523438"/>
<use xlink:href="#glyph-0-4" x="124.602079" y="13.523438"/>
<use xlink:href="#glyph-0-3" x="130.140502" y="13.523438"/>
<use xlink:href="#glyph-0-4" x="135.678926" y="13.523438"/>
</g>
</g>
<g fill="rgb(0%, 0%, 0%)" fill-opacity="1">
<use xlink:href="#glyph-0-0" x="168.875" y="103.429688"/>
<use xlink:href="#glyph-0-1" x="174.413423" y="103.429688"/>
<use xlink:href="#glyph-0-5" x="177.180204" y="103.429688"/>
<use xlink:href="#glyph-0-0" x="182.718627" y="103.429688"/>
<use xlink:href="#glyph-0-6" x="188.257051" y="103.429688"/>
</g>
<g fill="rgb(0%, 0%, 0%)" fill-opacity="1">
<use xlink:href="#glyph-0-0" x="221.453125" y="105.148438"/>
<use xlink:href="#glyph-0-1" x="226.991548" y="105.148438"/>
<use xlink:href="#glyph-0-7" x="229.758329" y="105.148438"/>
<use xlink:href="#glyph-0-7" x="235.296752" y="105.148438"/>
<use xlink:href="#glyph-0-7" x="240.835176" y="105.148438"/>
</g>
<g fill="rgb(0%, 0%, 0%)" fill-opacity="1">
<use xlink:href="#glyph-0-0" x="274.035156" y="114.320312"/>
<use xlink:href="#glyph-0-1" x="279.57358" y="114.320312"/>
<use xlink:href="#glyph-0-8" x="282.34036" y="114.320312"/>
<use xlink:href="#glyph-0-6" x="287.878784" y="114.320312"/>
<use xlink:href="#glyph-0-0" x="293.417207" y="114.320312"/>
</g>
<g fill="rgb(0%, 0%, 0%)" fill-opacity="1">
<use xlink:href="#glyph-0-0" x="326.613281" y="127.613281"/>
<use xlink:href="#glyph-0-1" x="332.151705" y="127.613281"/>
<use xlink:href="#glyph-0-3" x="334.918485" y="127.613281"/>
<use xlink:href="#glyph-0-2" x="340.456909" y="127.613281"/>
<use xlink:href="#glyph-0-8" x="345.995332" y="127.613281"/>
</g>
<g fill="rgb(0%, 0%, 0%)" fill-opacity="1">
<use xlink:href="#glyph-0-9" x="379.195312" y="74.816406"/>
<use xlink:href="#glyph-0-1" x="384.733736" y="74.816406"/>
<use xlink:href="#glyph-0-3" x="387.500516" y="74.816406"/>
<use xlink:href="#glyph-0-8" x="393.03894" y="74.816406"/>
<use xlink:href="#glyph-0-10" x="398.577363" y="74.816406"/>
</g>
<g fill="rgb(0%, 0%, 0%)" fill-opacity="1">
<use xlink:href="#glyph-0-6" x="431.773438" y="163.050781"/>
<use xlink:href="#glyph-0-1" x="437.311861" y="163.050781"/>
<use xlink:href="#glyph-0-8" x="440.078641" y="163.050781"/>
<use xlink:href="#glyph-0-8" x="445.617065" y="163.050781"/>
<use xlink:href="#glyph-0-8" x="451.155488" y="163.050781"/>
</g>
<g fill="rgb(0%, 0%, 0%)" fill-opacity="1">
<use xlink:href="#glyph-0-0" x="484.351562" y="140.796875"/>
<use xlink:href="#glyph-0-1" x="489.889986" y="140.796875"/>
<use xlink:href="#glyph-0-0" x="492.656766" y="140.796875"/>
<use xlink:href="#glyph-0-10" x="498.19519" y="140.796875"/>
<use xlink:href="#glyph-0-3" x="503.733613" y="140.796875"/>
</g>
<g fill="rgb(0%, 0%, 0%)" fill-opacity="1">
<use xlink:href="#glyph-0-0" x="536.933594" y="130.425781"/>
<use xlink:href="#glyph-0-1" x="542.472017" y="130.425781"/>
<use xlink:href="#glyph-0-3" x="545.238798" y="130.425781"/>
<use xlink:href="#glyph-0-10" x="550.777221" y="130.425781"/>
<use xlink:href="#glyph-0-9" x="556.315644" y="130.425781"/>
</g>
<g fill="rgb(0%, 0%, 0%)" fill-opacity="1">
<use xlink:href="#glyph-0-0" x="589.511719" y="137.304688"/>
<use xlink:href="#glyph-0-1" x="595.050142" y="137.304688"/>
<use xlink:href="#glyph-0-0" x="597.816923" y="137.304688"/>
<use xlink:href="#glyph-0-8" x="603.355346" y="137.304688"/>
<use xlink:href="#glyph-0-6" x="608.893769" y="137.304688"/>
</g>
<path fill="none" stroke-width="1.066978" stroke-linecap="square" stroke-linejoin="round" stroke="rgb(0%, 0%, 0%)" stroke-opacity="1" stroke-miterlimit="10" d="M 44.628906 271.839844 L 44.628906 5.480469 "/>
<g fill="rgb(0%, 0%, 0%)" fill-opacity="1">
<use xlink:href="#glyph-1-0" x="34.804688" y="263.382812"/>
</g>
<g fill="rgb(0%, 0%, 0%)" fill-opacity="1">
<use xlink:href="#glyph-1-1" x="20.121094" y="211.261719"/>
<use xlink:href="#glyph-1-0" x="25.015234" y="211.261719"/>
<use xlink:href="#glyph-1-0" x="29.909375" y="211.261719"/>
<use xlink:href="#glyph-1-0" x="34.803516" y="211.261719"/>
</g>
<g fill="rgb(0%, 0%, 0%)" fill-opacity="1">
<use xlink:href="#glyph-1-2" x="20.121094" y="159.144531"/>
<use xlink:href="#glyph-1-0" x="25.015234" y="159.144531"/>
<use xlink:href="#glyph-1-0" x="29.909375" y="159.144531"/>
<use xlink:href="#glyph-1-0" x="34.803516" y="159.144531"/>
</g>
<g fill="rgb(0%, 0%, 0%)" fill-opacity="1">
<use xlink:href="#glyph-1-3" x="20.121094" y="107.023438"/>
<use xlink:href="#glyph-1-0" x="25.015234" y="107.023438"/>
<use xlink:href="#glyph-1-0" x="29.909375" y="107.023438"/>
<use xlink:href="#glyph-1-0" x="34.803516" y="107.023438"/>
</g>
<g fill="rgb(0%, 0%, 0%)" fill-opacity="1">
<use xlink:href="#glyph-1-4" x="20.121094" y="54.90625"/>
<use xlink:href="#glyph-1-0" x="25.015234" y="54.90625"/>
<use xlink:href="#glyph-1-0" x="29.909375" y="54.90625"/>
<use xlink:href="#glyph-1-0" x="34.803516" y="54.90625"/>
</g>
<path fill="none" stroke-width="1.066978" stroke-linecap="butt" stroke-linejoin="round" stroke="rgb(0%, 0%, 0%)" stroke-opacity="1" stroke-miterlimit="10" d="M 41.890625 259.734375 L 44.628906 259.734375 "/>
<path fill="none" stroke-width="1.066978" stroke-linecap="butt" stroke-linejoin="round" stroke="rgb(0%, 0%, 0%)" stroke-opacity="1" stroke-miterlimit="10" d="M 41.890625 207.613281 L 44.628906 207.613281 "/>
<path fill="none" stroke-width="1.066978" stroke-linecap="butt" stroke-linejoin="round" stroke="rgb(0%, 0%, 0%)" stroke-opacity="1" stroke-miterlimit="10" d="M 41.890625 155.496094 L 44.628906 155.496094 "/>
<path fill="none" stroke-width="1.066978" stroke-linecap="butt" stroke-linejoin="round" stroke="rgb(0%, 0%, 0%)" stroke-opacity="1" stroke-miterlimit="10" d="M 41.890625 103.375 L 44.628906 103.375 "/>
<path fill="none" stroke-width="1.066978" stroke-linecap="butt" stroke-linejoin="round" stroke="rgb(0%, 0%, 0%)" stroke-opacity="1" stroke-miterlimit="10" d="M 41.890625 51.253906 L 44.628906 51.253906 "/>
<path fill="none" stroke-width="1.066978" stroke-linecap="square" stroke-linejoin="round" stroke="rgb(0%, 0%, 0%)" stroke-opacity="1" stroke-miterlimit="10" d="M 44.628906 271.839844 L 633.519531 271.839844 "/>
<path fill="none" stroke-width="1.066978" stroke-linecap="butt" stroke-linejoin="round" stroke="rgb(0%, 0%, 0%)" stroke-opacity="1" stroke-miterlimit="10" d="M 76.175781 274.578125 L 76.175781 271.839844 "/>
<path fill="none" stroke-width="1.066978" stroke-linecap="butt" stroke-linejoin="round" stroke="rgb(0%, 0%, 0%)" stroke-opacity="1" stroke-miterlimit="10" d="M 128.757812 274.578125 L 128.757812 271.839844 "/>
<path fill="none" stroke-width="1.066978" stroke-linecap="butt" stroke-linejoin="round" stroke="rgb(0%, 0%, 0%)" stroke-opacity="1" stroke-miterlimit="10" d="M 181.335938 274.578125 L 181.335938 271.839844 "/>
<path fill="none" stroke-width="1.066978" stroke-linecap="butt" stroke-linejoin="round" stroke="rgb(0%, 0%, 0%)" stroke-opacity="1" stroke-miterlimit="10" d="M 233.914062 274.578125 L 233.914062 271.839844 "/>
<path fill="none" stroke-width="1.066978" stroke-linecap="butt" stroke-linejoin="round" stroke="rgb(0%, 0%, 0%)" stroke-opacity="1" stroke-miterlimit="10" d="M 286.496094 274.578125 L 286.496094 271.839844 "/>
<path fill="none" stroke-width="1.066978" stroke-linecap="butt" stroke-linejoin="round" stroke="rgb(0%, 0%, 0%)" stroke-opacity="1" stroke-miterlimit="10" d="M 339.074219 274.578125 L 339.074219 271.839844 "/>
<path fill="none" stroke-width="1.066978" stroke-linecap="butt" stroke-linejoin="round" stroke="rgb(0%, 0%, 0%)" stroke-opacity="1" stroke-miterlimit="10" d="M 391.65625 274.578125 L 391.65625 271.839844 "/>
<path fill="none" stroke-width="1.066978" stroke-linecap="butt" stroke-linejoin="round" stroke="rgb(0%, 0%, 0%)" stroke-opacity="1" stroke-miterlimit="10" d="M 444.234375 274.578125 L 444.234375 271.839844 "/>
<path fill="none" stroke-width="1.066978" stroke-linecap="butt" stroke-linejoin="round" stroke="rgb(0%, 0%, 0%)" stroke-opacity="1" stroke-miterlimit="10" d="M 496.8125 274.578125 L 496.8125 271.839844 "/>
<path fill="none" stroke-width="1.066978" stroke-linecap="butt" stroke-linejoin="round" stroke="rgb(0%, 0%, 0%)" stroke-opacity="1" stroke-miterlimit="10" d="M 549.394531 274.578125 L 549.394531 271.839844 "/>
<path fill="none" stroke-width="1.066978" stroke-linecap="butt" stroke-linejoin="round" stroke="rgb(0%, 0%, 0%)" stroke-opacity="1" stroke-miterlimit="10" d="M 601.972656 274.578125 L 601.972656 271.839844 "/>
<g fill="rgb(0%, 0%, 0%)" fill-opacity="1">
<use xlink:href="#glyph-2-0" x="47.742188" y="316.742188"/>
<use xlink:href="#glyph-2-1" x="52.458534" y="312.025841"/>
<use xlink:href="#glyph-2-2" x="56.391125" y="308.09325"/>
<use xlink:href="#glyph-2-3" x="58.745846" y="305.738529"/>
<use xlink:href="#glyph-2-4" x="62.28138" y="302.202995"/>
<use xlink:href="#glyph-2-5" x="66.213971" y="298.270404"/>
<use xlink:href="#glyph-2-6" x="70.146562" y="294.337813"/>
<use xlink:href="#glyph-2-7" x="74.079153" y="290.405222"/>
<use xlink:href="#glyph-2-8" x="78.011744" y="286.472631"/>
</g>
<g fill="rgb(0%, 0%, 0%)" fill-opacity="1">
<use xlink:href="#glyph-2-0" x="100.324219" y="316.742188"/>
<use xlink:href="#glyph-2-1" x="105.040566" y="312.025841"/>
<use xlink:href="#glyph-2-2" x="108.973157" y="308.09325"/>
<use xlink:href="#glyph-2-3" x="111.327877" y="305.738529"/>
<use xlink:href="#glyph-2-4" x="114.863411" y="302.202995"/>
<use xlink:href="#glyph-2-5" x="118.796002" y="298.270404"/>
<use xlink:href="#glyph-2-6" x="122.728593" y="294.337813"/>
<use xlink:href="#glyph-2-7" x="126.661184" y="290.405222"/>
<use xlink:href="#glyph-2-9" x="130.593775" y="286.472631"/>
</g>
<g fill="rgb(0%, 0%, 0%)" fill-opacity="1">
<use xlink:href="#glyph-2-0" x="152.902344" y="316.742188"/>
<use xlink:href="#glyph-2-1" x="157.618691" y="312.025841"/>
<use xlink:href="#glyph-2-2" x="161.551282" y="308.09325"/>
<use xlink:href="#glyph-2-3" x="163.906002" y="305.738529"/>
<use xlink:href="#glyph-2-4" x="167.441536" y="302.202995"/>
<use xlink:href="#glyph-2-5" x="171.374127" y="298.270404"/>
<use xlink:href="#glyph-2-6" x="175.306718" y="294.337813"/>
<use xlink:href="#glyph-2-7" x="179.239309" y="290.405222"/>
<use xlink:href="#glyph-2-7" x="183.1719" y="286.472631"/>
</g>
<g fill="rgb(0%, 0%, 0%)" fill-opacity="1">
<use xlink:href="#glyph-2-0" x="205.480469" y="316.742188"/>
<use xlink:href="#glyph-2-1" x="210.196816" y="312.025841"/>
<use xlink:href="#glyph-2-2" x="214.129407" y="308.09325"/>
<use xlink:href="#glyph-2-3" x="216.484127" y="305.738529"/>
<use xlink:href="#glyph-2-4" x="220.019661" y="302.202995"/>
<use xlink:href="#glyph-2-5" x="223.952252" y="298.270404"/>
<use xlink:href="#glyph-2-6" x="227.884843" y="294.337813"/>
<use xlink:href="#glyph-2-7" x="231.817434" y="290.405222"/>
<use xlink:href="#glyph-2-10" x="235.750025" y="286.472631"/>
</g>
<g fill="rgb(0%, 0%, 0%)" fill-opacity="1">
<use xlink:href="#glyph-2-0" x="258.0625" y="316.742188"/>
<use xlink:href="#glyph-2-1" x="262.778847" y="312.025841"/>
<use xlink:href="#glyph-2-2" x="266.711438" y="308.09325"/>
<use xlink:href="#glyph-2-3" x="269.066159" y="305.738529"/>
<use xlink:href="#glyph-2-4" x="272.601693" y="302.202995"/>
<use xlink:href="#glyph-2-5" x="276.534284" y="298.270404"/>
<use xlink:href="#glyph-2-6" x="280.466875" y="294.337813"/>
<use xlink:href="#glyph-2-7" x="284.399465" y="290.405222"/>
<use xlink:href="#glyph-2-11" x="288.332056" y="286.472631"/>
</g>
<g fill="rgb(0%, 0%, 0%)" fill-opacity="1">
<use xlink:href="#glyph-2-0" x="310.640625" y="316.742187"/>
<use xlink:href="#glyph-2-1" x="315.356972" y="312.025841"/>
<use xlink:href="#glyph-2-2" x="319.289563" y="308.09325"/>
<use xlink:href="#glyph-2-3" x="321.644284" y="305.738529"/>
<use xlink:href="#glyph-2-4" x="325.179818" y="302.202995"/>
<use xlink:href="#glyph-2-5" x="329.112409" y="298.270404"/>
<use xlink:href="#glyph-2-6" x="333.045" y="294.337813"/>
<use xlink:href="#glyph-2-10" x="336.97759" y="290.405222"/>
<use xlink:href="#glyph-2-12" x="340.910181" y="286.472631"/>
</g>
<g fill="rgb(0%, 0%, 0%)" fill-opacity="1">
<use xlink:href="#glyph-2-0" x="363.21875" y="316.742188"/>
<use xlink:href="#glyph-2-1" x="367.935097" y="312.025841"/>
<use xlink:href="#glyph-2-2" x="371.867688" y="308.09325"/>
<use xlink:href="#glyph-2-3" x="374.222409" y="305.738529"/>
<use xlink:href="#glyph-2-4" x="377.757943" y="302.202995"/>
<use xlink:href="#glyph-2-5" x="381.690534" y="298.270404"/>
<use xlink:href="#glyph-2-6" x="385.623125" y="294.337813"/>
<use xlink:href="#glyph-2-10" x="389.555715" y="290.405222"/>
<use xlink:href="#glyph-2-13" x="393.488306" y="286.472631"/>
</g>
<g fill="rgb(0%, 0%, 0%)" fill-opacity="1">
<use xlink:href="#glyph-2-0" x="415.800781" y="316.742188"/>
<use xlink:href="#glyph-2-1" x="420.517128" y="312.025841"/>
<use xlink:href="#glyph-2-2" x="424.449719" y="308.09325"/>
<use xlink:href="#glyph-2-3" x="426.80444" y="305.738529"/>
<use xlink:href="#glyph-2-4" x="430.339974" y="302.202995"/>
<use xlink:href="#glyph-2-5" x="434.272565" y="298.270404"/>
<use xlink:href="#glyph-2-6" x="438.205156" y="294.337813"/>
<use xlink:href="#glyph-2-10" x="442.137747" y="290.405222"/>
<use xlink:href="#glyph-2-14" x="446.070338" y="286.472631"/>
</g>
<g fill="rgb(0%, 0%, 0%)" fill-opacity="1">
<use xlink:href="#glyph-2-0" x="468.378906" y="316.742188"/>
<use xlink:href="#glyph-2-1" x="473.095253" y="312.025841"/>
<use xlink:href="#glyph-2-2" x="477.027844" y="308.09325"/>
<use xlink:href="#glyph-2-3" x="479.382565" y="305.738529"/>
<use xlink:href="#glyph-2-4" x="482.918099" y="302.202995"/>
<use xlink:href="#glyph-2-5" x="486.85069" y="298.270404"/>
<use xlink:href="#glyph-2-6" x="490.783281" y="294.337813"/>
<use xlink:href="#glyph-2-10" x="494.715872" y="290.405222"/>
<use xlink:href="#glyph-2-15" x="498.648463" y="286.472631"/>
</g>
<g fill="rgb(0%, 0%, 0%)" fill-opacity="1">
<use xlink:href="#glyph-2-0" x="520.957031" y="316.742188"/>
<use xlink:href="#glyph-2-1" x="525.673378" y="312.025841"/>
<use xlink:href="#glyph-2-2" x="529.605969" y="308.09325"/>
<use xlink:href="#glyph-2-3" x="531.96069" y="305.738529"/>
<use xlink:href="#glyph-2-4" x="535.496224" y="302.202995"/>
<use xlink:href="#glyph-2-5" x="539.428815" y="298.270404"/>
<use xlink:href="#glyph-2-6" x="543.361406" y="294.337813"/>
<use xlink:href="#glyph-2-10" x="547.293997" y="290.405222"/>
<use xlink:href="#glyph-2-16" x="551.226588" y="286.472631"/>
</g>
<g fill="rgb(0%, 0%, 0%)" fill-opacity="1">
<use xlink:href="#glyph-2-0" x="573.539062" y="316.742188"/>
<use xlink:href="#glyph-2-1" x="578.255409" y="312.025841"/>
<use xlink:href="#glyph-2-2" x="582.188" y="308.09325"/>
<use xlink:href="#glyph-2-3" x="584.542721" y="305.738529"/>
<use xlink:href="#glyph-2-4" x="588.078255" y="302.202995"/>
<use xlink:href="#glyph-2-5" x="592.010846" y="298.270404"/>
<use xlink:href="#glyph-2-6" x="595.943437" y="294.337813"/>
<use xlink:href="#glyph-2-10" x="599.876028" y="290.405222"/>
<use xlink:href="#glyph-2-8" x="603.808619" y="286.472631"/>
</g>
<g fill="rgb(0%, 0%, 0%)" fill-opacity="1">
<use xlink:href="#glyph-3-0" x="320.425781" y="331.007812"/>
<use xlink:href="#glyph-3-1" x="327.762695" y="331.007812"/>
<use xlink:href="#glyph-3-2" x="333.880371" y="331.007812"/>
<use xlink:href="#glyph-3-3" x="343.043457" y="331.007812"/>
<use xlink:href="#glyph-3-4" x="349.161133" y="331.007812"/>
<use xlink:href="#glyph-3-5" x="351.60498" y="331.007812"/>
</g>
<g fill="rgb(0%, 0%, 0%)" fill-opacity="1">
<use xlink:href="#glyph-4-0" x="14.351562" y="160.058594"/>
<use xlink:href="#glyph-4-1" x="14.351563" y="152.114746"/>
<use xlink:href="#glyph-4-2" x="14.351563" y="145.99707"/>
<use xlink:href="#glyph-4-3" x="14.351563" y="139.879395"/>
<use xlink:href="#glyph-4-4" x="14.351563" y="136.823242"/>
<use xlink:href="#glyph-4-5" x="14.351563" y="133.160156"/>
<use xlink:href="#glyph-4-6" x="14.351563" y="127.04248"/>
<use xlink:href="#glyph-4-7" x="14.351563" y="120.924805"/>
</g>
</svg>
